SplineFontDB: 3.2
FontName: sachacHand-Regular
FullName: sachacHand Regular
FamilyName: sachacHand
Weight: Regular

StartChar: H
Encoding: 72 72 0
Width: 411
VWidth: 0
Flags: HW
LayerCount: 2
Back
Fore
SplineSet
109.555664062 336 m 1
 109.555664062 288 113.555664062 240 113.555664062 192 c 0
 113.555664062 132 116.555664062 73 120.555664062 14 c 0
 121.555664062 -4 112.555664062 -23 91.5556640625 -22 c 0
 61.5556640625 -20 62.5556640625 17 60.5556640625 39 c 0
 53.5556640625 106 53.5556640625 175 51.5556640625 242 c 0
 48.5556640625 346 49.5556640625 452 57.5556640625 556 c 0
 59.5556640625 582 47.5556640625 645 77.5556640625 655 c 0
 109.555664062 665 115.555664062 628 114.555664062 606 c 0
 111.555664062 534 109.555664062 462 109.555664062 390 c 1
 341.555664062 384 l 1
 341.555664062 457 343.555664062 530 340.555664062 603 c 0
 339.555664062 625 345.555664062 659 375.555664062 651 c 0
 395.555664062 646 395.555664062 627 395.555664062 610 c 0
 395.555664062 574 400.555664062 537 400.555664062 501 c 0
 400.555664062 380 398.555664062 259 393.555664062 138 c 0
 392.555664062 104 389.555664062 70 387.555664062 36 c 0
 386.555664062 22 391.555664062 7 384.555664062 -6 c 0
 371.555664062 -30 336.555664062 -19 333.555664062 6 c 0
 329.555664062 33 335.555664062 59 335.555664062 86 c 0
 336.555664062 119 333.555664062 153 336.555664062 186 c 0
 340.555664062 233 339.555664062 281 339.555664062 328 c 1
 309.555664062 322 273.555664062 326 243.555664062 328 c 0
 198.555664062 330 154.555664062 331 109.555664062 336 c 1
EndSplineSet
EndChar

StartChar: e
Encoding: 101 101 1
Width: 419
VWidth: 0
Flags: HW
LayerCount: 2
Back
Fore
SplineSet
89.486328125 172 m 5
 93.486328125 152 97.486328125 135 110.486328125 118 c 4
 144.486328125 74 233.486328125 46 287.486328125 60 c 4
 316.486328125 68 333.486328125 90 359.486328125 102 c 4
 377.486328125 110 399.486328125 97 398.486328125 77 c 4
 396.486328125 45 341.486328125 18 315.486328125 9 c 4
 233.486328125 -18 108.486328125 16 57.486328125 88 c 4
 -5.513671875 178 46.486328125 329 145.486328125 371 c 4
 191.486328125 391 245.486328125 381 287.486328125 356 c 4
 297.486328125 350 305.486328125 344 313.486328125 336 c 4
 342.486328125 307 391.486328125 236 347.486328125 199 c 4
 331.486328125 185 305.486328125 181 285.486328125 178 c 4
 244.486328125 171 202.486328125 170 161.486328125 168 c 4
 138.486328125 167 111.486328125 164 89.486328125 172 c 5
99.486328125 228 m 5
 122.486328125 218 150.486328125 222 175.486328125 224 c 4
 217.486328125 227 265.486328125 225 305.486328125 242 c 5
 286.486328125 293 227.486328125 339 171.486328125 317 c 4
 150.486328125 309 132.486328125 288 119.486328125 270 c 4
 110.486328125 257 103.486328125 243 99.486328125 228 c 5
EndSplineSet
EndChar

StartChar: n
Encoding: 110 110 2
Width: 405
VWidth: 0
Flags: HW
LayerCount: 2
Back
Fore
SplineSet
31.384765625 144 m 1024
370.384765625 60 m 1024
313.384765625 21 m 1024
288.384765625 256 m 1024
136.384765625 266 m 1024
90.384765625 306 m 1
 123.384765625 394 236.318359375 403.928710938 298.384765625 346 c 0
 373.384765625 276 381.897460938 155.939453125 370.384765625 60 c 0
 367.384765625 35 377.78125 27.67578125 361.384765625 8 c 0
 346.384765625 -10 315.78125 -2.9638671875 313.384765625 21 c 0
 310.384765625 51 314.384765625 48 316.384765625 78 c 0
 320.384765625 138 317.109375 202.381835938 288.384765625 256 c 0
 273.384765625 284 249.391601562 321.083007812 214.384765625 324 c 0
 178.384765625 327 147.98046875 296.041992188 136.384765625 266 c 0
 121.717773438 228 94.7177734375 141 95.384765625 60 c 0
 95.56640625 37.990234375 100.78125 4.591796875 76.384765625 1 c 0
 16.7080078125 -7.78515625 30.9921875 61.1123046875 32.7177734375 87 c 0
 35.05078125 122 34.89453125 108.974609375 36.384765625 144 c 0
 38.384765625 191 36.4287109375 240.001953125 34.384765625 287 c 0
 33.384765625 310 23.384765625 359 41.384765625 377 c 0
 54.384765625 390 76.7275390625 386.166992188 84.384765625 370 c 0
 93.384765625 351 84.384765625 326 90.384765625 306 c 1
EndSplineSet
EndChar

StartChar: A
Encoding: 65 65 3
Width: 528
VWidth: 0
Flags: HW
LayerCount: 2
Back
Fore
SplineSet
414 130 m 1
 385 69 321 18 262 -12 c 0
 235 -26 203 -37 172 -30 c 0
 128 -20 94 19 74 58 c 0
 47 108 40 166 40 222 c 0
 40 326 62 431 124 516 c 0
 149 550 180 580 216 604 c 0
 242 621 270 634 300 641 c 0
 321 646 342 648 363 646 c 0
 462 638 491 537 489 451 c 0
 489 431 483 412 482 392 c 0
 481 368 480 343 478 319 c 0
 476 298 467 277 466 256 c 0
 464 222 464 187 469 154 c 0
 475 119 495 54 539 50 c 0
 559 48 576 65 596 62 c 0
 613 59 622 40 616 24 c 0
 609 6 579 -1 562 -4 c 0
 508 -15 461 24 437 70 c 0
 427 89 422 110 414 130 c 1
329 589 m 0
 167 564 86 363 99 216 c 0
 104 162 107 112 139 66 c 0
 153 46 173 25 199 28 c 0
 230 31 262 54 286 73 c 0
 349 121 395 198 408 276 c 0
 415 316 410 358 414 398 c 0
 415 411 417 425 422 438 c 0
 425 446 433 452 434 460 c 0
 439 492 426 558 398 578 c 0
 380 591 350 592 329 589 c 0
EndSplineSet
EndChar

StartChar: M
Encoding: 77 77 4
Width: 639
VWidth: 0
Flags: HW
LayerCount: 2
Back
Fore
SplineSet
306.16015625 400 m 1
 334.16015625 445 373.16015625 486 406.16015625 528 c 0
 435.16015625 566 466.16015625 604 500.16015625 638 c 0
 513.16015625 651 529.16015625 671 550.16015625 664 c 0
 592.16015625 651 580.16015625 569 580.16015625 536 c 0
 580.16015625 402 575.16015625 269 580.16015625 135 c 0
 582.16015625 87 589.16015625 39 589.16015625 -9 c 0
 589.16015625 -23 580.16015625 -34 567.16015625 -37 c 0
 527.16015625 -45 529.16015625 23 527.16015625 47 c 0
 518.16015625 143 520.16015625 240 516.16015625 337 c 0
 513.16015625 415 520.16015625 492 520.16015625 570 c 1
 467.16015625 509 418.16015625 445 367.16015625 382 c 0
 352.16015625 363 329.16015625 324 300.16015625 329 c 0
 274.16015625 334 256.16015625 366 243.16015625 386 c 0
 211.16015625 435 177.16015625 486 142.16015625 532 c 1
 136.16015625 490 139.16015625 445 137.16015625 402 c 0
 132.16015625 308 130.16015625 215 129.16015625 121 c 0
 129.16015625 89 132.16015625 54 127.16015625 22 c 0
 125.16015625 8 116.16015625 -4 101.16015625 -5 c 0
 85.16015625 -6 73.16015625 7 72.16015625 22 c 0
 69.16015625 62 70.16015625 102 70.16015625 142 c 0
 70.16015625 273 83.16015625 402 85.16015625 533 c 0
 86.16015625 564 82.16015625 603 89.16015625 634 c 0
 92.16015625 645 100.16015625 653 111.16015625 655 c 0
 124.16015625 657 141.16015625 648 149.16015625 638 c 0
 158.16015625 626 163.16015625 609 170.16015625 596 c 0
 185.16015625 569 202.16015625 544 219.16015625 518 c 0
 246.16015625 478 280.16015625 442 304.16015625 400 c 1
 306.16015625 400 l 1
140.16015625 534 m 1
 142.16015625 532 l 1
 140.16015625 534 l 1
EndSplineSet
EndChar

StartChar: Y
Encoding: 89 89 5
Width: 450
VWidth: 0
Flags: HW
LayerCount: 2
Back
Fore
SplineSet
345.154296875 404 m 1
 323.154296875 371 303.154296875 342 273.154296875 316 c 0
 259.154296875 304 244.154296875 293 227.154296875 286 c 0
 213.154296875 280 198.154296875 276 183.154296875 277 c 0
 74.154296875 281 46.154296875 413 41.154296875 500 c 0
 39.154296875 538 40.154296875 574 41.154296875 612 c 0
 42.154296875 627 40.154296875 650 52.154296875 661 c 0
 69.154296875 677 96.154296875 663 98.154296875 641 c 0
 100.154296875 615 94.154296875 588 94.154296875 562 c 0
 94.154296875 515 100.154296875 470 110.154296875 424 c 0
 118.154296875 390 138.154296875 347 175.154296875 337 c 0
 205.154296875 329 238.154296875 361 256.154296875 382 c 0
 307.154296875 440 341.154296875 521 354.154296875 596 c 0
 358.154296875 623 371.154296875 689 413.154296875 667 c 0
 431.154296875 658 431.154296875 637 428.154296875 620 c 0
 422.154296875 580 406.154296875 544 405.154296875 504 c 0
 402.154296875 385 426.154296875 268 422.154296875 150 c 0
 420.154296875 96 412.154296875 37 361.154296875 6 c 0
 296.154296875 -33 199.154296875 2 133.154296875 22 c 0
 110.154296875 29 53.154296875 38 69.154296875 74 c 0
 81.154296875 101 117.154296875 86 137.154296875 79 c 0
 182.154296875 65 231.154296875 48 279.154296875 48 c 0
 293.154296875 48 310.154296875 46 323.154296875 52 c 0
 359.154296875 68 361.154296875 110 363.154296875 143 c 0
 367.154296875 230 353.154296875 318 345.154296875 404 c 1
EndSplineSet
EndChar

StartChar: eight
Encoding: 56 56 6
Width: 371
VWidth: 0
Flags: HW
LayerCount: 2
Back
Fore
SplineSet
198.65234375 298 m 1
 220.65234375 279 237.65234375 250 253.65234375 226 c 0
 293.65234375 166 335.65234375 102 308.65234375 28 c 0
 296.65234375 -3 265.65234375 -14 234.65234375 -16 c 0
 182.65234375 -19 122.65234375 -11 90.65234375 36 c 0
 52.65234375 92 60.65234375 167 85.65234375 226 c 0
 92.65234375 243 100.65234375 260 110.65234375 276 c 0
 114.65234375 282 122.65234375 290 121.65234375 298 c 0
 118.65234375 318 89.65234375 346 79.65234375 364 c 0
 44.65234375 426 13.65234375 499 39.65234375 570 c 0
 69.65234375 652 154.65234375 678 230.65234375 647 c 0
 254.65234375 637 282.65234375 621 292.65234375 596 c 1
 348.65234375 611 345.65234375 548 334.65234375 510 c 0
 318.65234375 452 282.65234375 403 245.65234375 356 c 0
 230.65234375 338 216.65234375 316 198.65234375 300 c 1
 198.65234375 298 l 1
160.65234375 346 m 1
 183.65234375 363 202.65234375 393 219.65234375 416 c 0
 233.65234375 434 257.65234375 459 262.65234375 482 c 0
 264.65234375 491 257.65234375 500 256.65234375 509 c 0
 254.65234375 531 256.65234375 556 241.65234375 574 c 0
 214.65234375 605 156.65234375 616 122.65234375 591 c 0
 99.65234375 574 88.65234375 545 86.65234375 517 c 0
 85.65234375 493 95.65234375 468 104.65234375 446 c 0
 119.65234375 410 141.65234375 380 160.65234375 346 c 1
162.65234375 248 m 1
 131.65234375 201 100.65234375 116 142.65234375 66 c 0
 161.65234375 43 248.65234375 23 257.65234375 64 c 0
 266.65234375 105 232.65234375 150 211.65234375 182 c 0
 197.65234375 204 182.65234375 231 162.65234375 248 c 1
EndSplineSet
EndChar

StartChar: quotesingle
Encoding: 39 39 7
Width: 130
VWidth: 0
Flags: HW
LayerCount: 2
Back
Fore
SplineSet
48 659 m 0
 68 665 85 650 91 632 c 0
 102 600 103 556 94 524 c 0
 90 509 84 494 68 490 c 0
 54 486 39 495 35 509 c 0
 32 520 37 531 38 542 c 0
 40 560 39 579 39 597 c 0
 39 610 30 619 30 632 c 0
 30 644 36 655 48 659 c 0
EndSplineSet
EndChar

StartChar: numbersign
Encoding: 35 35 8
Width: 515
VWidth: 0
Flags: HW
LayerCount: 2
Back
Fore
SplineSet
285.817382812 488 m 1
 285.817382812 514 273.817382812 554 283.817382812 578 c 0
 291.817382812 597 320.817382812 600 331.817382812 582 c 0
 340.817382812 567 339.817382812 535 340.817382812 518 c 0
 341.817382812 511 339.817382812 498 344.817382812 493 c 0
 350.817382812 487 365.817382812 490 373.817382812 490 c 0
 392.817382812 490 418.817382812 490 435.817382812 480 c 0
 454.817382812 468 452.817382812 440 431.817382812 431 c 0
 420.817382812 426 406.817382812 431 395.817382812 432 c 0
 378.817382812 434 361.817382812 430 345.817382812 432 c 1
 343.817382812 430 l 1
 353.817382812 395 343.817382812 350 343.817382812 314 c 1
 381.817382812 315 429.817382812 325 465.817382812 313 c 0
 486.817382812 306 491.817382812 278 473.817382812 265 c 0
 462.817382812 257 443.817382812 259 429.817382812 259 c 0
 401.817382812 258 368.817382812 259 341.817382812 252 c 1
 345.817382812 238 345.817382812 209 338.817382812 196 c 0
 329.817382812 181 307.817382812 177 295.817382812 190 c 0
 280.817382812 205 288.817382812 233 283.817382812 252 c 1
 219.817382812 248 l 1
 225.817382812 227 229.817382812 182 200.817382812 177 c 0
 166.817382812 172 160.817382812 222 163.817382812 246 c 1
 137.817382812 246 111.817382812 244 85.8173828125 243 c 0
 74.8173828125 243 61.8173828125 240 51.8173828125 247 c 0
 35.8173828125 259 39.8173828125 286 57.8173828125 294 c 0
 84.8173828125 305 130.817382812 302 159.817382812 302 c 1
 151.817382812 426 l 1
 127.817382812 419 73.8173828125 415 49.8173828125 424 c 0
 30.8173828125 431 22.8173828125 455 37.8173828125 470 c 0
 47.8173828125 480 62.8173828125 477 75.8173828125 477 c 0
 100.817382812 477 124.817382812 481 149.817382812 482 c 1
 149.817382812 505 137.817382812 541 148.817382812 562 c 0
 158.817382812 581 185.817382812 584 196.817382812 564 c 0
 206.817382812 545 204.817382812 508 205.817382812 486 c 1
 285.817382812 488 l 1
211.817382812 428 m 1
 209.817382812 426 l 1
 217.817382812 306 l 1
 283.817382812 310 l 1
 285.817382812 430 l 1
 211.817382812 428 l 1
EndSplineSet
EndChar

StartChar: less
Encoding: 60 60 9
Width: 355
VWidth: 0
Flags: HW
LayerCount: 2
Back
Fore
SplineSet
96.1171875 318 m 1
 129.1171875 295 160.1171875 274 196.1171875 256 c 0
 217.1171875 246 237.1171875 234 258.1171875 224 c 0
 278.1171875 214 308.1171875 201 320.1171875 182 c 0
 332.1171875 164 318.1171875 141 298.1171875 140 c 0
 276.1171875 139 251.1171875 164 232.1171875 173 c 0
 179.1171875 200 121.1171875 221 74.1171875 258 c 0
 56.1171875 272 32.1171875 290 30.1171875 315 c 0
 28.1171875 340 52.1171875 360 67.1171875 378 c 0
 107.1171875 426 151.1171875 469 192.1171875 516 c 0
 206.1171875 533 223.1171875 566 244.1171875 574 c 0
 263.1171875 582 285.1171875 565 281.1171875 544 c 0
 276.1171875 518 246.1171875 492 229.1171875 472 c 0
 212.1171875 451 195.1171875 431 177.1171875 411 c 0
 150.1171875 380 124.1171875 347 96.1171875 318 c 1
EndSplineSet
EndChar

StartChar: O
Encoding: 79 79 10
Width: 471
VWidth: 0
Flags: HW
LayerCount: 2
Back
Fore
SplineSet
167.631835938 593.400390625 m 5
 150.3515625 593.400390625 121.551757812 592.549804688 108.111328125 602.75 c 4
 85.0712890625 619.75 107.151367188 643.549804688 131.151367188 642.700195312 c 4
 153.231445312 641.849609375 178.19140625 635.049804688 200.271484375 637.599609375 c 4
 214.671875 639.299804688 224.271484375 650.349609375 240.591796875 644.400390625 c 4
 252.111328125 640.150390625 253.071289062 628.25 263.631835938 624 c 4
 324.111328125 597.650390625 377.872070312 573.849609375 414.3515625 520.299804688 c 4
 443.151367188 477.799804688 452.751953125 428.5 457.551757812 379.200195312 c 4
 468.111328125 267.849609375 455.631835938 125.900390625 355.791992188 45.150390625 c 4
 265.551757812 -27.9501953125 103.311523438 2.650390625 58.19140625 103.799804688 c 4
 22.671875 184.549804688 46.671875 285.700195312 66.83203125 367.299804688 c 4
 86.9912109375 448.900390625 128.271484375 518.599609375 167.631835938 593.400390625 c 5
224.271484375 581.5 m 4
 215.631835938 577.25 209.872070312 563.650390625 205.071289062 556 c 4
 190.671875 533.049804688 178.19140625 508.400390625 166.671875 484.599609375 c 4
 131.151367188 411.5 110.991210938 334.150390625 102.3515625 255.099609375 c 4
 98.51171875 217.700195312 95.6318359375 180.299804688 104.271484375 142.900390625 c 4
 109.071289062 123.349609375 118.671875 101.25 134.991210938 86.7998046875 c 4
 169.551757812 57.0498046875 246.3515625 45.150390625 290.51171875 64.7001953125 c 4
 328.912109375 81.7001953125 357.711914062 125.900390625 373.071289062 159.900390625 c 4
 402.83203125 226.200195312 407.631835938 296.75 401.872070312 367.299804688 c 4
 398.991210938 401.299804688 395.151367188 435.299804688 380.751953125 467.599609375 c 4
 360.591796875 512.650390625 323.151367188 544.099609375 275.151367188 567.049804688 c 4
 265.551757812 572.150390625 234.83203125 586.599609375 224.271484375 581.5 c 4
EndSplineSet
EndChar

StartChar: b
Encoding: 98 98 11
Width: 411
VWidth: 0
Flags: HW
LayerCount: 2
Back
Fore
SplineSet
104.505859375 351.11328125 m 1
 132.401367188 365.088867188 154.099609375 377.419921875 187.1640625 381.529296875 c 0
 261.555664062 389.750976562 329.749023438 349.469726562 353.513671875 295.211914062 c 0
 388.643554688 215.470703125 376.245117188 65.515625 273.955078125 19.4794921875 c 0
 221.259765625 -4.3603515625 148.93359375 9.6142578125 94.173828125 20.3017578125 c 0
 76.6083984375 23.58984375 44.578125 28.521484375 34.2451171875 41.67578125 c 0
 21.84765625 57.294921875 40.4453125 65.515625 41.478515625 79.490234375 c 0
 45.2763671875 152.015625 40.017578125 213.73046875 45.6103515625 289.45703125 c 0
 50.77734375 358.51171875 44.578125 403.387695312 44.578125 472.442382812 c 0
 44.578125 501.21484375 43.544921875 530.810546875 39.4130859375 559.583007812 c 0
 37.345703125 571.9140625 30.1123046875 590.821289062 37.345703125 602.331054688 c 0
 53.876953125 627.815429688 89.0068359375 613.017578125 93.1396484375 589.999023438 c 0
 102.439453125 529.166015625 104.505859375 490.043945312 104.505859375 428.387695312 c 0
 104.505859375 403.725585938 110.705078125 374.954101562 104.505859375 351.11328125 c 1
198.529296875 333.849609375 m 0
 161.333007812 329.740234375 127.8046875 300.322265625 115.538085938 283.727539062 c 0
 96.494140625 257.963867188 97.5830078125 125.114257812 103.471679688 86.0673828125 c 0
 104.505859375 81.134765625 102.439453125 71.2705078125 106.572265625 67.16015625 c 0
 111.73828125 62.2275390625 127.236328125 62.2275390625 134.46875 60.5830078125 c 0
 160.299804688 55.650390625 190.262695312 51.5400390625 217.126953125 54.005859375 c 0
 253.291015625 57.294921875 278.086914062 80.3125 291.520507812 105.796875 c 0
 315.28515625 150.189453125 318.383789062 235.201171875 295.653320312 280.415039062 c 0
 280.154296875 310.831054688 242.958007812 338.782226562 198.529296875 333.849609375 c 0
EndSplineSet
EndChar

StartChar: r
Encoding: 114 114 12
Width: 378
VWidth: 0
Flags: HW
LayerCount: 2
Back
Fore
SplineSet
88.111328125 324 m 1
 116.111328125 384 212.111328125 390 272.111328125 389 c 4
 296.111328125 388 341.111328125 375 347.111328125 348 c 4
 350.111328125 331 336.111328125 316 320.111328125 316 c 4
 303.111328125 315 290.111328125 330 274.111328125 332 c 4
 232.111328125 338 175.111328125 332 146.111328125 302 c 0
 74.111328125 226 99.111328125 121 98.111328125 28 c 0
 98.111328125 5 74.111328125 -14 52.111328125 0 c 0
 29.111328125 15 33.111328125 65 33.111328125 89 c 0
 32.111328125 149 33.111328125 209 33.111328125 269 c 0
 33.111328125 298 26.111328125 333 33.111328125 362 c 0
 39.111328125 386 72.111328125 392 84.111328125 370 c 0
 92.111328125 356 84.111328125 339 88.111328125 324 c 1
EndSplineSet
EndChar

StartChar: B
Encoding: 66 66 13
Width: 399
VWidth: 0
Flags: HW
LayerCount: 2
Back
Fore
SplineSet
85.205078125 44 m 1
 70.205078125 93 75.205078125 153 73.205078125 204 c 0
 69.205078125 309 73.205078125 413 73.205078125 518 c 0
 73.205078125 546 77.205078125 576 75.205078125 604 c 0
 74.205078125 613 66.205078125 616 62.205078125 624 c 0
 52.205078125 645 69.205078125 661 85.205078125 671 c 0
 196.205078125 740 354.205078125 678 356.205078125 538 c 0
 357.205078125 477 320.205078125 425 279.205078125 384 c 1
 349.205078125 378 396.205078125 317 399.205078125 250 c 0
 402.205078125 169 369.205078125 88 301.205078125 40 c 0
 255.205078125 8 203.205078125 -6 150.205078125 -16 c 0
 138.205078125 -18 131.205078125 -30 117.205078125 -29 c 0
 104.205078125 -28 98.205078125 -17 87.205078125 -13 c 0
 67.205078125 -7 34.205078125 -6 23.205078125 14 c 0
 14.205078125 30 25.205078125 50 43.205078125 53 c 0
 57.205078125 55 72.205078125 48 85.205078125 44 c 1
131.205078125 370 m 1
 149.205078125 380 169.205078125 384 187.205078125 393 c 0
 236.205078125 418 288.205078125 465 297.205078125 522 c 0
 309.205078125 592 248.205078125 651 179.205078125 644 c 0
 166.205078125 643 147.205078125 642 136.205078125 634 c 0
 125.205078125 625 130.205078125 584 130.205078125 570 c 0
 130.205078125 525 129.205078125 481 129.205078125 436 c 0
 129.205078125 415 125.205078125 390 131.205078125 370 c 1
129.205078125 304 m 1
 137.205078125 108 l 1
 143.205078125 40 l 1
 211.205078125 56 274.205078125 75 313.205078125 138 c 0
 340.205078125 181 359.205078125 262 317.205078125 304 c 0
 297.205078125 324 258.205078125 332 231.205078125 332 c 0
 194.205078125 333 164.205078125 314 129.205078125 304 c 1
EndSplineSet
EndChar

StartChar: N
Encoding: 78 78 14
Width: 506
VWidth: 0
Flags: HW
LayerCount: 2
Back
Fore
SplineSet
132 524 m 1
 137 451 135 377 133 304 c 0
 132 255 130 205 130 156 c 0
 130 104 136 45 126 -6 c 0
 122 -29 90 -40 76 -18 c 0
 69 -7 71 13 71 26 c 2
 70 123 l 2
 70 247 76 372 76 496 c 0
 76 539 77 581 74 624 c 0
 73 640 71 660 92 665 c 0
 117 671 120 652 130 637 c 0
 148 611 163 584 179 556 c 0
 225 472 279 393 329 312 c 0
 355 270 377 225 402 182 c 1
 408 247 401 313 407 378 c 0
 411 420 414 463 415 505 c 0
 416 537 418 568 418 600 c 0
 418 613 411 627 415 640 c 0
 422 664 454 664 465 644 c 0
 485 607 472 550 472 510 c 0
 472 393 461 276 463 159 c 0
 464 120 470 80 463 42 c 0
 460 24 452 6 432 4 c 0
 397 0 388 53 379 78 c 0
 347 167 299 246 250 326 c 0
 222 371 193 416 167 462 c 0
 156 482 141 502 134 524 c 1
 132 524 l 1
402 182 m 1
 404 180 l 1
 402 182 l 1
EndSplineSet
EndChar

StartChar: Z
Encoding: 90 90 15
Width: 452
VWidth: 0
Flags: HW
LayerCount: 2
Back
Fore
SplineSet
382.418945312 612 m 1
 339.418945312 614 295.418945312 617 252.418945312 620 c 0
 224.418945312 622 195.418945312 626 167.418945312 629 c 0
 140.418945312 632 98.4189453125 630 76.4189453125 646 c 0
 59.4189453125 659 60.4189453125 690 82.4189453125 697 c 0
 94.4189453125 701 104.418945312 694 115.418945312 691 c 0
 132.418945312 687 149.418945312 686 166.418945312 684 c 0
 239.418945312 677 313.418945312 677 385.418945312 669 c 0
 410.418945312 666 454.418945312 660 459.418945312 631 c 0
 463.418945312 610 445.418945312 594 433.418945312 580 c 0
 407.418945312 549 382.418945312 516 359.418945312 482 c 0
 265.418945312 343 178.418945312 201 100.418945312 52 c 1
 148.418945312 53 196.418945312 57 244.418945312 53 c 0
 277.418945312 50 309.418945312 49 342.418945312 47 c 0
 374.418945312 45 419.418945312 47 448.418945312 31 c 0
 467.418945312 21 466.418945312 -9 446.418945312 -18 c 0
 424.418945312 -28 382.418945312 -11 358.418945312 -10 c 0
 279.418945312 -7 202.418945312 -3 123.418945312 -6 c 0
 95.4189453125 -7 50.4189453125 -10 34.4189453125 18 c 0
 24.4189453125 35 33.4189453125 52 41.4189453125 68 c 0
 58.4189453125 103 76.4189453125 137 94.4189453125 172 c 0
 127.418945312 237 168.418945312 300 207.418945312 362 c 0
 260.418945312 448 316.418945312 536 382.418945312 612 c 1
EndSplineSet
EndChar

StartChar: nine
Encoding: 57 57 16
Width: 441
VWidth: 0
Flags: HW
LayerCount: 2
Back
Fore
SplineSet
335.51953125 422 m 1
 323.51953125 398 302.51953125 378 283.51953125 360 c 0
 262.51953125 340 239.51953125 323 213.51953125 311 c 0
 153.51953125 284 88.51953125 321 57.51953125 374 c 0
 19.51953125 438 21.51953125 529 59.51953125 592 c 0
 112.51953125 682 250.51953125 715 341.51953125 663 c 0
 356.51953125 654 364.51953125 641 376.51953125 629 c 0
 386.51953125 620 399.51953125 622 406.51953125 608 c 0
 416.51953125 590 406.51953125 568 402.51953125 550 c 0
 397.51953125 526 398.51953125 499 397.51953125 474 c 0
 394.51953125 350 397.51953125 226 397.51953125 102 c 0
 397.51953125 69 406.51953125 28 398.51953125 -4 c 0
 394.51953125 -21 375.51953125 -31 359.51953125 -23 c 0
 345.51953125 -16 343.51953125 -1 343.51953125 13 c 0
 342.51953125 39 342.51953125 66 341.51953125 92 c 0
 338.51953125 167 337.51953125 242 336.51953125 317 c 0
 336.51953125 350 342.51953125 391 335.51953125 422 c 1
218.51953125 629 m 0
 137.51953125 620 88.51953125 557 89.51953125 478 c 0
 90.51953125 430 117.51953125 355 177.51953125 362 c 0
 199.51953125 365 217.51953125 381 233.51953125 395 c 0
 268.51953125 425 294.51953125 464 317.51953125 504 c 0
 325.51953125 518 339.51953125 538 339.51953125 554 c 0
 339.51953125 561 334.51953125 566 332.51953125 572 c 0
 329.51953125 582 333.51953125 592 326.51953125 602 c 0
 306.51953125 630 249.51953125 632 218.51953125 629 c 0
EndSplineSet
EndChar

StartChar: quoteright
Encoding: 8217 8217 17
Width: 139
VWidth: 0
Flags: HW
LayerCount: 2
Back
Fore
SplineSet
67.05859375 652 m 0
 98.05859375 662 105.05859375 625 107.05859375 604 c 0
 112.05859375 560 105.05859375 513 94.05859375 470 c 0
 89.05859375 453 84.05859375 432 65.05859375 426 c 0
 48.05859375 421 31.05859375 435 30.05859375 452 c 0
 29.05859375 478 41.05859375 506 46.05859375 531 c 0
 52.05859375 563 51.05859375 592 48.05859375 624 c 0
 47.05859375 637 55.05859375 648 67.05859375 652 c 0
EndSplineSet
EndChar

StartChar: dollar
Encoding: 36 36 18
Width: 394
VWidth: 0
Flags: HW
LayerCount: 2
Back
Fore
SplineSet
141.819335938 202 m 1
 141.819335938 241 139.819335938 281 139.819335938 320 c 0
 139.819335938 333 143.819335938 357 136.819335938 369 c 0
 130.819335938 379 114.819335938 387 105.819335938 394 c 0
 76.8193359375 416 28.8193359375 450 31.8193359375 492 c 0
 34.8193359375 529 70.8193359375 551 99.8193359375 566 c 0
 108.819335938 571 127.819335938 574 133.819335938 583 c 0
 137.819335938 590 135.819335938 601 135.819335938 608 c 0
 135.819335938 628 131.819335938 655 140.819335938 674 c 0
 151.819335938 696 182.819335938 697 192.819335938 674 c 0
 197.819335938 663 192.819335938 654 191.819335938 643 c 0
 189.819335938 625 190.819335938 606 191.819335938 588 c 1
 217.819335938 586 l 1
 217.819335938 607 209.819335938 639 218.819335938 658 c 0
 226.819335938 675 250.819335938 679 263.819335938 666 c 0
 283.819335938 646 268.819335938 603 274.819335938 578 c 0
 277.819335938 565 292.819335938 558 294.819335938 544 c 0
 297.819335938 524 276.819335938 522 273.819335938 506 c 0
 268.819335938 473 272.819335938 435 273.819335938 402 c 0
 273.819335938 388 270.819335938 371 274.819335938 358 c 0
 278.819335938 344 301.819335938 332 311.819335938 322 c 0
 336.819335938 298 362.819335938 265 363.819335938 228 c 0
 364.819335938 176 328.819335938 124 273.819335938 120 c 1
 273.819335938 104 277.819335938 82 267.819335938 68 c 0
 256.819335938 53 230.819335938 54 221.819335938 70 c 0
 214.819335938 82 216.819335938 103 217.819335938 116 c 1
 199.819335938 118 l 1
 199.819335938 99 202.819335938 68 193.819335938 52 c 0
 182.819335938 33 154.819335938 32 144.819335938 52 c 0
 136.819335938 68 142.819335938 95 142.819335938 112 c 0
 142.819335938 119 143.819335938 128 139.819335938 134 c 0
 132.819335938 143 117.819335938 149 107.819335938 155 c 0
 82.8193359375 171 48.8193359375 194 33.8193359375 220 c 0
 21.8193359375 241 39.8193359375 267 63.8193359375 261 c 0
 89.8193359375 254 119.819335938 218 141.819335938 202 c 1
191.819335938 530 m 1
 195.819335938 499 194.819335938 466 195.819335938 434 c 0
 196.819335938 416 194.819335938 401 213.819335938 394 c 1
 217.819335938 532 l 1
 191.819335938 530 l 1
133.819335938 520 m 1
 122.819335938 513 98.8193359375 505 93.8193359375 492 c 0
 87.8193359375 477 126.819335938 450 137.819335938 446 c 1
 136.819335938 467 143.819335938 502 133.819335938 520 c 1
199.819335938 330 m 1
 201.819335938 176 l 1
 213.819335938 176 l 1
 211.819335938 213 213.819335938 251 213.819335938 288 c 0
 213.819335938 305 217.819335938 323 199.819335938 330 c 1
273.819335938 274 m 1
 271.819335938 180 l 1
 318.819335938 196 306.819335938 250 273.819335938 274 c 1
EndSplineSet
EndChar

StartChar: greater
Encoding: 62 62 19
Width: 342
VWidth: 0
Flags: HW
LayerCount: 2
Back
Fore
SplineSet
51.3798828125 617 m 0
 74.3798828125 622 100.379882812 593 116.379882812 580 c 0
 163.379882812 543 210.379882812 509 260.379882812 475 c 0
 278.379882812 462 308.379882812 448 311.379882812 423 c 0
 313.379882812 404 303.379882812 389 294.379882812 374 c 0
 275.379882812 343 251.379882812 314 229.379882812 284 c 0
 211.379882812 260 193.379882812 234 172.379882812 212 c 0
 163.379882812 202 153.379882812 190 138.379882812 190 c 0
 110.379882812 190 107.379882812 222 121.379882812 240 c 0
 154.379882812 281 184.379882812 323 215.379882812 366 c 0
 221.379882812 375 245.379882812 400 243.379882812 411 c 0
 240.379882812 424 204.379882812 441 194.379882812 448 c 0
 148.379882812 481 106.379882812 517 62.3798828125 552 c 0
 45.3798828125 566 5.3798828125 606 51.3798828125 617 c 0
EndSplineSet
EndChar

StartChar: h
Encoding: 104 104 20
Width: 391
VWidth: 0
Flags: HW
LayerCount: 2
Back
Fore
SplineSet
96.83984375 292 m 1
 108.83984375 331 158.83984375 386 201.83984375 381 c 0
 224.83984375 379 248.83984375 364 264.83984375 348 c 0
 339.83984375 275 357.83984375 158 357.83984375 59 c 0
 357.83984375 35 366.83984375 31 352.83984375 11 c 0
 338.83984375 -9 307.83984375 0 303.83984375 23 c 0
 298.83984375 49 303.83984375 37 302.83984375 64 c 0
 300.83984375 129 292.83984375 187 258.83984375 244 c 0
 244.83984375 267 226.83984375 310 200.83984375 319 c 0
 173.83984375 329 147.83984375 264 138.83984375 246 c 0
 115.83984375 200 100.83984375 151 94.83984375 100 c 0
 91.83984375 73 94.83984375 60 91.83984375 33 c 0
 89.83984375 14 75.83984375 -4 54.83984375 2 c 0
 40.83984375 6 31.83984375 18 30.83984375 32 c 0
 27.83984375 68 33.83984375 92 33.83984375 129 c 0
 33.83984375 225 43.83984375 320 38.83984375 416 c 0
 36.83984375 451 37.83984375 485 36.83984375 520 c 0
 36.83984375 534 30.83984375 553 37.83984375 566 c 0
 48.83984375 588 79.83984375 584 87.83984375 562 c 0
 92.83984375 548 90.83984375 531 90.83984375 516 c 0
 91.83984375 492 91.3505859375 467.954101562 92.83984375 444 c 0
 95.1455078125 406.9140625 92.05078125 363.092773438 96.83984375 292 c 1
EndSplineSet
EndChar

StartChar: u
Encoding: 117 117 21
Width: 370
VWidth: 0
Flags: HW
LayerCount: 2
Back
Fore
SplineSet
43.076171875 380 m 4
 89.076171875 398 78.076171875 331 78.076171875 308 c 4
 77.076171875 247 73.076171875 188 94.076171875 129 c 4
 104.076171875 100 121.076171875 71 153.076171875 64 c 4
 185.076171875 57 210.076171875 75 231.076171875 97 c 4
 279.076171875 146 285.076171875 222 285.076171875 287 c 4
 285.076171875 312 268.076171875 375 307.076171875 377 c 4
 324.076171875 378 335.076171875 365 337.076171875 349 c 4
 341.076171875 319 341.076171875 289 341.076171875 259 c 4
 341.076171875 165 308.076171875 37 205.076171875 8 c 4
 190.076171875 4 175.076171875 1 160.076171875 2 c 4
 39.076171875 12 14.076171875 159 21.076171875 257 c 4
 23.076171875 286 24.076171875 314 25.076171875 343 c 4
 26.076171875 357 27.076171875 374 43.076171875 380 c 4
EndSplineSet
EndChar

StartChar: R
Encoding: 82 82 22
Width: 397
VWidth: 0
Flags: HW
LayerCount: 2
Back
Fore
SplineSet
111.25 268 m 1
 111.25 225 112.25 182 109.25 140 c 0
 107.25 107 107.25 73 107.25 40 c 0
 107.25 25 110.25 8 107.25 -6 c 0
 103.25 -27 78.25 -40 61.25 -24 c 0
 50.25 -14 52.25 1 51.25 14 c 0
 49.25 46 50.25 77 50.25 109 c 0
 50.25 236 52.25 365 59.25 492 c 0
 61.25 527 64.25 566 61.25 600 c 0
 59.25 618 44.25 632 65.25 647 c 0
 85.25 662 134.25 653 157.25 650 c 0
 241.25 637 339.25 608 341.25 506 c 0
 342.25 437 302.25 388 247.25 350 c 0
 224.25 334 197.25 322 175.25 304 c 1
 259.25 268 328.25 178 369.25 100 c 0
 380.25 78 402.25 49 406.25 25 c 0
 409.25 8 392.25 -8 375.25 -5 c 0
 360.25 -3 353.25 10 346.25 22 c 0
 333.25 45 321.25 69 307.25 92 c 0
 271.25 149 227.25 199 171.25 236 c 0
 153.25 248 133.25 264 111.25 268 c 1
115.25 596 m 1
 115.25 522 l 1
 113.25 342 l 1
 155.25 362 197.25 385 233.25 414 c 0
 248.25 426 266.25 442 274.25 460 c 0
 286.25 489 288.25 530 265.25 554 c 0
 242.25 578 201.25 587 170.25 592 c 0
 153.25 595 132.25 601 115.25 596 c 1
EndSplineSet
EndChar

StartChar: P
Encoding: 80 80 23
Width: 351
VWidth: 0
Flags: HW
LayerCount: 2
Back
Fore
SplineSet
121.892578125 276 m 1
 121.892578125 239 119.892578125 201 119.892578125 164 c 0
 119.892578125 121 126.892578125 70 119.892578125 28 c 0
 116.892578125 10 99.892578125 -3 81.892578125 5 c 0
 61.892578125 13 64.892578125 34 62.892578125 52 c 0
 57.892578125 99 60.892578125 149 60.892578125 196 c 0
 60.892578125 302 66.892578125 409 66.892578125 515 c 0
 66.892578125 547 51.892578125 608 71.892578125 636 c 0
 82.892578125 651 96.892578125 645 111.892578125 648 c 0
 149.892578125 655 190.892578125 658 227.892578125 642 c 0
 310.892578125 606 375.892578125 503 341.892578125 412 c 0
 323.892578125 364 280.892578125 329 235.892578125 306 c 0
 205.892578125 291 155.892578125 266 121.892578125 276 c 1
121.892578125 326 m 1
 201.892578125 348 307.892578125 390 285.892578125 492 c 0
 282.892578125 507 275.892578125 521 268.892578125 534 c 0
 247.892578125 571 204.892578125 597 161.892578125 598 c 0
 150.892578125 598 130.892578125 601 122.892578125 591 c 0
 111.892578125 579 120.892578125 534 121.892578125 519 c 0
 123.892578125 456 130.892578125 388 121.892578125 326 c 1
EndSplineSet
EndChar

StartChar: zero
Encoding: 48 48 24
Width: 434
VWidth: 0
Flags: HW
LayerCount: 2
Back
Fore
SplineSet
152.77734375 619 m 0
 171.77734375 623 180.77734375 610 196.77734375 604 c 0
 256.77734375 581 296.77734375 542 336.77734375 492 c 0
 363.77734375 457 390.77734375 413 399.77734375 369 c 0
 418.77734375 273 366.77734375 168 311.77734375 94 c 0
 275.77734375 45 235.77734375 -4 171.77734375 -15 c 0
 87.77734375 -30 50.77734375 58 37.77734375 126 c 0
 26.77734375 182 29.77734375 238 32.77734375 294 c 0
 36.77734375 371 46.77734375 447 73.77734375 520 c 0
 77.77734375 531 87.77734375 545 87.77734375 556 c 0
 88.77734375 570 75.77734375 579 85.77734375 594 c 0
 95.77734375 608 110.77734375 604 124.77734375 608 c 0
 134.77734375 611 142.77734375 617 152.77734375 619 c 0
151.77734375 550 m 0
 144.77734375 545 139.77734375 534 135.77734375 526 c 0
 124.77734375 503 116.77734375 479 110.77734375 454 c 0
 86.77734375 358 77.77734375 244 94.77734375 146 c 0
 99.77734375 119 110.77734375 59 138.77734375 47 c 0
 156.77734375 39 178.77734375 48 194.77734375 57 c 0
 226.77734375 74 248.77734375 108 268.77734375 136 c 0
 311.77734375 196 355.77734375 280 341.77734375 358 c 0
 338.77734375 375 328.77734375 394 321.77734375 410 c 0
 301.77734375 459 254.77734375 508 210.77734375 536 c 0
 196.77734375 545 168.77734375 560 151.77734375 550 c 0
EndSplineSet
EndChar

StartChar: question
Encoding: 63 63 25
Width: 371
VWidth: 0
Flags: HW
LayerCount: 2
Back
Fore
SplineSet
202.858398438 667 m 0
 226.858398438 669 249.858398438 665 270.858398438 654 c 0
 284.858398438 647 297.858398438 638 309.858398438 627 c 0
 392.858398438 547 288.858398438 449 240.858398438 382 c 0
 230.858398438 368 219.858398438 353 211.858398438 338 c 0
 203.858398438 324 194.858398438 308 194.858398438 292 c 0
 194.858398438 269 231.858398438 212 182.858398438 212 c 0
 144.858398438 212 133.858398438 284 138.858398438 312 c 0
 151.858398438 383 209.858398438 440 250.858398438 496 c 0
 264.858398438 515 293.858398438 550 276.858398438 574 c 0
 234.858398438 634 148.858398438 605 102.858398438 567 c 0
 84.8583984375 552 81.8583984375 515 50.8583984375 524 c 0
 10.8583984375 535 37.8583984375 579 53.8583984375 598 c 0
 89.8583984375 640 148.858398438 662 202.858398438 667 c 0
202.858398438 102 m 0
 255.858398438 105 245.858398438 28 201.858398438 25 c 0
 181.858398438 24 161.858398438 51 163.858398438 70 c 0
 165.858398438 89 184.858398438 101 202.858398438 102 c 0
EndSplineSet
EndChar

StartChar: quotedbl
Encoding: 34 34 26
Width: 238
VWidth: 0
Flags: HW
LayerCount: 2
Back
Fore
SplineSet
50.47265625 635 m 0
 67.47265625 640 81.47265625 628 84.47265625 612 c 0
 92.47265625 574 91.47265625 534 90.47265625 496 c 0
 90.47265625 480 86.47265625 460 68.47265625 455 c 0
 52.47265625 450 37.47265625 461 33.47265625 476 c 0
 26.47265625 502 32.47265625 531 33.47265625 557 c 0
 33.47265625 575 28.47265625 594 30.47265625 612 c 0
 31.47265625 623 40.47265625 632 50.47265625 635 c 0
163.47265625 625 m 0
 175.47265625 628 189.47265625 620 194.47265625 608 c 0
 198.47265625 599 196.47265625 588 198.47265625 578 c 0
 203.47265625 552 222.47265625 486 184.47265625 477 c 0
 171.47265625 474 158.47265625 480 152.47265625 492 c 0
 142.47265625 512 146.47265625 542 144.47265625 564 c 0
 143.47265625 576 140.47265625 590 142.47265625 602 c 0
 144.47265625 613 152.47265625 622 163.47265625 625 c 0
EndSplineSet
EndChar

StartChar: percent
Encoding: 37 37 27
Width: 360
VWidth: 0
Flags: HW
LayerCount: 2
Back
Fore
SplineSet
286.458984375 513 m 0
 304.458984375 516 321.458984375 499 318.458984375 481 c 0
 315.458984375 464 300.458984375 447 291.458984375 432 c 0
 239.458984375 350 184.458984375 272 126.458984375 194 c 0
 110.458984375 173 87.458984375 121 57.458984375 120 c 0
 39.458984375 119 27.458984375 135 30.458984375 152 c 0
 33.458984375 170 50.458984375 189 60.458984375 204 c 0
 112.458984375 282 171.458984375 356 224.458984375 434 c 0
 238.458984375 455 260.458984375 508 286.458984375 513 c 0
89.458984375 465 m 0
 126.458984375 473 147.458984375 413 107.458984375 403 c 0
 68.458984375 394 49.458984375 456 89.458984375 465 c 0
294.458984375 236 m 0
 310.458984375 241 327.458984375 230 329.458984375 214 c 0
 331.458984375 195 317.458984375 163 299.458984375 157 c 0
 281.458984375 151 262.458984375 162 261.458984375 182 c 0
 260.458984375 201 275.458984375 230 294.458984375 236 c 0
EndSplineSet
EndChar

StartChar: bracketleft
Encoding: 91 91 28
Width: 265
VWidth: 0
Flags: HW
LayerCount: 2
Back
Fore
SplineSet
113.80078125 28 m 1
 139.80078125 36 189.80078125 35 215.80078125 26 c 0
 232.80078125 20 240.80078125 -1 229.80078125 -16 c 0
 219.80078125 -30 202.80078125 -27 187.80078125 -26 c 0
 153.80078125 -23 93.80078125 -42 65.80078125 -17 c 0
 52.80078125 -5 51.80078125 32 48.80078125 49 c 0
 42.80078125 89 45.80078125 131 45.80078125 172 c 0
 45.80078125 241 45.80078125 311 41.80078125 380 c 0
 37.80078125 447 33.80078125 515 33.80078125 582 c 0
 33.80078125 605 26.80078125 631 31.80078125 654 c 0
 35.80078125 672 52.80078125 681 69.80078125 685 c 0
 103.80078125 693 143.80078125 689 177.80078125 682 c 0
 191.80078125 679 209.80078125 676 218.80078125 664 c 0
 230.80078125 648 220.80078125 624 200.80078125 621 c 0
 188.80078125 619 176.80078125 626 164.80078125 628 c 0
 139.80078125 632 114.80078125 632 89.80078125 632 c 1
 89.80078125 507 102.80078125 381 105.80078125 256 c 0
 107.80078125 182 93.80078125 100 113.80078125 28 c 1
EndSplineSet
EndChar

StartChar: o
Encoding: 111 111 29
Width: 382
VWidth: 0
Flags: HW
LayerCount: 2
Back
Fore
SplineSet
168.786132812 383 m 0
 188.786132812 387 194.786132812 375 211.786132812 370 c 0
 235.786132812 362 259.786132812 359 280.786132812 343 c 0
 296.786132812 331 305.786132812 313 315.786132812 296 c 0
 339.786132812 256 354.786132812 215 351.786132812 168 c 4
 346.786132812 77 268.786132812 13 183.786132812 -1 c 0
 114.786132812 -13 44.7861328125 49 32.7861328125 114 c 0
 18.7861328125 190 59.7861328125 280 105.786132812 338 c 0
 114.786132812 349 113.786132812 365 124.786132812 374 c 0
 134.786132812 382 155.786132812 381 168.786132812 383 c 0
164.786132812 318 m 0
 143.786132812 308 130.786132812 276 120.786132812 256 c 0
 91.7861328125 199 59.5751953125 87.2392578125 144.786132812 64 c 0
 155.786132812 61 169 56 181 59 c 0
 195 62 207.979492188 66.5966796875 220.786132812 73 c 0
 240.786132812 83 263.786132812 103 276.786132812 122 c 0
 301.786132812 158 294.786132812 216 273.786132812 252 c 0
 252.786132812 288 240.786132812 305 198.786132812 315 c 0
 189.786132812 317 173.786132812 322 164.786132812 318 c 0
EndSplineSet
EndChar

StartChar: k
Encoding: 107 107 30
Width: 393
VWidth: 0
Flags: HW
LayerCount: 2
Back
Fore
SplineSet
97.73046875 284 m 5
 97.73046875 245 99.73046875 205 100.73046875 166 c 4
 101.73046875 121 110.73046875 73 105.73046875 28 c 4
 103.73046875 8 80.73046875 -3 63.73046875 8 c 4
 51.73046875 16 51.73046875 30 50.73046875 43 c 4
 47.73046875 74 45.73046875 105 43.73046875 136 c 4
 36.73046875 244 41.73046875 350 41.73046875 458 c 4
 41.73046875 486 43.73046875 514 43.73046875 542 c 4
 43.73046875 554 40.73046875 571 47.73046875 582 c 4
 61.73046875 602 93.73046875 594 97.73046875 570 c 4
 106.73046875 515 97.73046875 452 97.73046875 396 c 5
 123.73046875 418 153.73046875 436 179.73046875 459 c 4
 196.73046875 474 211.73046875 495 231.73046875 507 c 4
 254.73046875 521 279.73046875 499 271.73046875 474 c 4
 266.73046875 459 249.73046875 448 239.73046875 438 c 4
 218.73046875 417 197.73046875 398 173.73046875 380 c 4
 157.73046875 368 135.73046875 356 123.73046875 340 c 5
 149.73046875 327 171.73046875 300 191.73046875 280 c 4
 244.73046875 227 294.73046875 167 333.73046875 104 c 4
 345.73046875 84 367.73046875 57 372.73046875 34 c 4
 376.73046875 17 362.73046875 1 345.73046875 1 c 4
 314.73046875 1 293.73046875 60 278.73046875 82 c 4
 230.73046875 154 166.73046875 230 97.73046875 284 c 5
EndSplineSet
EndChar

StartChar: w
Encoding: 119 119 31
Width: 509
VWidth: 0
Flags: HW
LayerCount: 2
Back
Fore
SplineSet
248.78515625 90 m 1
 231.78515625 70 214.78515625 43 194.78515625 26 c 0
 141.78515625 -17 81.78515625 -8 53.78515625 57 c 0
 26.78515625 120 27.78515625 204 32.78515625 272 c 0
 34.78515625 302 33.78515625 316 36.78515625 346 c 0
 37.78515625 360 38.78515625 377 50.78515625 387 c 0
 68.78515625 402 97.78515625 391 96.78515625 366 c 0
 95.78515625 348 89.78515625 346 88.78515625 328 c 0
 85.78515625 268 86.78515625 206 90.78515625 146 c 0
 91.78515625 125 103.78515625 65 126.78515625 58 c 0
 141.78515625 53 165.78515625 80 174.78515625 89 c 0
 193.78515625 108 221.78515625 146 227.78515625 174 c 0
 233.78515625 202 220.78515625 247 252.78515625 262 c 0
 272.78515625 272 294.78515625 258 299.78515625 237 c 0
 304.78515625 212 293.78515625 188 291.78515625 164 c 0
 289.78515625 143 300.78515625 117 309.78515625 98 c 0
 317.78515625 81 344.78515625 41 368.78515625 56 c 0
 384.78515625 66 394.78515625 85 402.78515625 102 c 0
 429.78515625 156 425.78515625 232 408.78515625 288 c 0
 400.78515625 313 355.78515625 371 392.78515625 390 c 0
 430.78515625 409 455.78515625 329 462.78515625 304 c 0
 487.78515625 216 489.78515625 105 428.78515625 30 c 0
 371.78515625 -39 262.78515625 7 248.78515625 90 c 1
EndSplineSet
EndChar

StartChar: D
Encoding: 68 68 32
Width: 433
VWidth: 0
Flags: HW
LayerCount: 2
Back
Fore
SplineSet
144.83984375 675 m 0
 244.83984375 676 327.83984375 576 368.83984375 494 c 0
 392.83984375 446 416.83984375 395 421.83984375 341 c 0
 435.83984375 185 340.83984375 24 182.83984375 -7 c 0
 164.83984375 -11 145.83984375 -9 128.83984375 -13 c 0
 119.83984375 -15 111.83984375 -22 101.83984375 -21 c 0
 87.83984375 -20 77.83984375 -9 76.83984375 4 c 0
 71.83984375 52 73.83984375 102 71.83984375 150 c 0
 67.83984375 265 64.83984375 379 64.83984375 494 c 0
 64.83984375 527 63.83984375 559 63.83984375 592 c 0
 63.83984375 604 57.83984375 614 60.83984375 626 c 0
 68.83984375 661 112.83984375 675 144.83984375 675 c 0
132.83984375 44 m 1
 271.83984375 46 365.83984375 180 363.83984375 312 c 0
 362.83984375 375 334.83984375 434 305.83984375 488 c 0
 281.83984375 532 236.83984375 587 190.83984375 609 c 0
 173.83984375 617 144.83984375 625 126.83984375 617 c 0
 114.83984375 612 118.83984375 595 118.83984375 584 c 0
 118.83984375 549 119.83984375 515 120.83984375 480 c 0
 123.83984375 335 132.83984375 189 132.83984375 44 c 1
EndSplineSet
EndChar

StartChar: Q
Encoding: 81 81 33
Width: 581
VWidth: 0
Flags: HW
LayerCount: 2
Back
Fore
SplineSet
383.953125 88 m 1
 364.953125 101 321.953125 141 363.953125 158 c 0
 381.953125 165 394.953125 151 407.953125 141 c 0
 413.953125 136 421.953125 126 429.953125 131 c 0
 439.953125 136 445.953125 149 452.953125 158 c 0
 475.953125 188 490.953125 220 499.953125 256 c 0
 531.953125 383 499.953125 541 379.953125 612 c 0
 336.953125 637 287.953125 653 237.953125 648 c 0
 212.953125 646 186.953125 634 162.953125 635 c 0
 144.953125 636 129.953125 652 135.953125 670 c 0
 142.953125 691 172.953125 694 191.953125 698 c 0
 248.953125 710 305.953125 706 359.953125 686 c 0
 500.953125 634 576.953125 484 570.953125 338 c 0
 567.953125 280 558.953125 218 530.953125 166 c 0
 519.953125 146 507.953125 128 493.953125 110 c 0
 487.953125 102 475.953125 93 472.953125 84 c 0
 470.953125 76 482.953125 65 487.953125 60 c 0
 501.953125 43 535.953125 19 538.953125 -3 c 0
 541.953125 -25 519.953125 -41 499.953125 -32 c 0
 474.953125 -21 436.953125 17 425.953125 42 c 1
 390.953125 17 356.953125 -6 315.953125 -19 c 0
 287.953125 -28 251.953125 -25 222.953125 -20 c 0
 198.953125 -16 176.953125 -7 155.953125 6 c 0
 -0.046875 101 26.953125 324 88.953125 468 c 0
 110.953125 519 138.953125 572 180.953125 610 c 0
 196.953125 624 213.953125 640 235.953125 644 c 0
 261.953125 649 293.953125 626 275.953125 598 c 0
 266.953125 583 253.953125 590 240.953125 586 c 0
 230.953125 583 222.953125 573 215.953125 566 c 0
 168.953125 517 139.953125 452 119.953125 388 c 0
 84.953125 274 78.953125 63 235.953125 39 c 0
 253.953125 36 272.953125 34 290.953125 37 c 0
 326.953125 42 353.953125 69 383.953125 86 c 1
 383.953125 88 l 1
EndSplineSet
EndChar

StartChar: one
Encoding: 49 49 34
Width: 248
VWidth: 0
Flags: HW
LayerCount: 2
Back
Fore
SplineSet
132.05078125 578 m 1
 114.05078125 560 91.05078125 530 68.05078125 519 c 0
 51.05078125 511 31.05078125 524 30.05078125 542 c 0
 29.05078125 560 43.05078125 569 54.05078125 580 c 0
 77.05078125 604 100.05078125 630 130.05078125 646 c 0
 147.05078125 655 168.05078125 657 179.05078125 638 c 0
 188.05078125 623 189.05078125 602 190.05078125 585 c 0
 191.05078125 550 190.05078125 515 190.05078125 480 c 0
 190.05078125 371 205.05078125 263 210.05078125 154 c 0
 212.05078125 122 213.05078125 88 216.05078125 56 c 0
 218.05078125 40 222.05078125 22 204.05078125 13 c 0
 188.05078125 5 171.05078125 14 165.05078125 30 c 0
 154.05078125 62 156.05078125 104 153.05078125 137 c 0
 140.05078125 285 132.05078125 430 132.05078125 578 c 1
EndSplineSet
EndChar

StartChar: colon
Encoding: 58 58 35
Width: 142
VWidth: 0
Flags: HW
LayerCount: 2
Back
Fore
SplineSet
75.9228515625 369 m 0
 123.922851562 380 111.922851562 302 78.9228515625 293 c 0
 52.9228515625 286 21.9228515625 305 31.9228515625 334 c 0
 37.9228515625 352 57.9228515625 365 75.9228515625 369 c 0
69.9228515625 137 m 0
 117.922851562 150 128.922851562 82 82.9228515625 71 c 0
 38.9228515625 61 27.9228515625 126 69.9228515625 137 c 0
EndSplineSet
EndChar

StartChar: quotedblleft
Encoding: 8220 8220 36
Width: 253
VWidth: 0
Flags: HW
LayerCount: 2
Back
Fore
SplineSet
82.546875 685 m 0
 98.546875 690 116.546875 680 118.546875 662 c 0
 120.546875 644 100.546875 625 96.546875 606 c 0
 93.546875 590 88.546875 572 90.546875 556 c 0
 91.546875 545 99.546875 536 99.546875 525 c 0
 99.546875 512 90.546875 501 78.546875 498 c 0
 52.546875 491 36.546875 521 32.546875 542 c 0
 24.546875 578 36.546875 620 52.546875 652 c 0
 58.546875 665 67.546875 681 82.546875 685 c 0
184.546875 660 m 0
 198.546875 661 210.546875 652 212.546875 638 c 0
 214.546875 625 206.546875 618 203.546875 606 c 0
 198.546875 585 198.546875 560 199.546875 538 c 0
 200.546875 519 221.546875 507 222.546875 488 c 0
 223.546875 473 213.546875 460 198.546875 458 c 0
 179.546875 456 165.546875 474 156.546875 488 c 0
 132.546875 526 139.546875 570 147.546875 612 c 0
 151.546875 633 158.546875 659 184.546875 660 c 0
EndSplineSet
EndChar

StartChar: ampersand
Encoding: 38 38 37
Width: 437
VWidth: 0
Flags: HW
LayerCount: 2
Back
Fore
SplineSet
295.393554688 108 m 1
 252.393554688 59 184.393554688 7 115.393554688 14 c 0
 82.3935546875 17 54.3935546875 27 41.3935546875 60 c 0
 36.3935546875 73 32.3935546875 86 31.3935546875 100 c 0
 29.3935546875 117 29.3935546875 135 32.3935546875 152 c 0
 41.3935546875 200 77.3935546875 238 107.393554688 274 c 0
 117.393554688 286 145.393554688 312 145.393554688 328 c 0
 145.393554688 349 124.393554688 378 117.393554688 398 c 0
 95.3935546875 457 79.3935546875 522 101.393554688 584 c 0
 120.393554688 637 179.393554688 656 227.393554688 627 c 0
 246.393554688 616 259.393554688 596 269.393554688 576 c 0
 299.393554688 515 290.393554688 452 261.393554688 392 c 0
 252.393554688 374 242.393554688 357 231.393554688 340 c 0
 228.393554688 334 220.393554688 326 220.393554688 319 c 0
 220.393554688 309 234.393554688 295 239.393554688 286 c 0
 256.393554688 259 279.393554688 233 293.393554688 204 c 1
 309.393554688 224 305.393554688 250 315.393554688 272 c 0
 326.393554688 298 364.393554688 292 367.393554688 264 c 0
 369.393554688 238 357.393554688 207 347.393554688 184 c 0
 343.393554688 176 333.393554688 163 333.393554688 154 c 0
 333.393554688 144 346.393554688 133 351.393554688 126 c 0
 366.393554688 105 403.393554688 73 406.393554688 47 c 0
 408.393554688 24 382.393554688 8 363.393554688 21 c 0
 353.393554688 28 345.393554688 40 338.393554688 50 c 0
 324.393554688 68 304.393554688 87 295.393554688 108 c 1
185.393554688 384 m 1
 198.393554688 392 206.393554688 414 212.393554688 428 c 0
 230.393554688 473 241.393554688 534 201.393554688 572 c 0
 197.393554688 576 191.393554688 578 185.393554688 579 c 0
 148.393554688 585 151.393554688 535 151.393554688 510 c 0
 151.393554688 494 153.393554688 479 157.393554688 464 c 0
 164.393554688 437 178.393554688 411 185.393554688 384 c 1
179.393554688 270 m 1
 158.393554688 242 134.393554688 216 113.393554688 188 c 0
 104.393554688 176 95.3935546875 163 91.3935546875 148 c 0
 88.3935546875 138 87.3935546875 128 88.3935546875 117 c 0
 89.3935546875 105 89.3935546875 86 98.3935546875 77 c 0
 105.393554688 70 117.393554688 70 126.393554688 70 c 0
 158.393554688 68 193.393554688 91 217.393554688 110 c 0
 228.393554688 118 257.393554688 139 257.393554688 154 c 0
 257.393554688 164 244.393554688 176 239.393554688 184 c 0
 220.393554688 211 203.393554688 248 179.393554688 270 c 1
EndSplineSet
EndChar

StartChar: bracketright
Encoding: 93 93 38
Width: 271
VWidth: 0
Flags: HW
LayerCount: 2
Back
Fore
SplineSet
180.979492188 48 m 1
 180.979492188 168 170.979492188 287 170.979492188 407 c 0
 170.979492188 451 171.979492188 494 172.979492188 538 c 0
 172.979492188 553 178.979492188 573 175.979492188 588 c 0
 172.979492188 599 153.979492188 599 144.979492188 600 c 0
 115.979492188 602 77.9794921875 594 50.9794921875 604 c 0
 34.9794921875 610 25.9794921875 629 34.9794921875 644 c 0
 46.9794921875 664 69.9794921875 655 88.9794921875 656 c 0
 131.979492188 658 223.979492188 665 233.979492188 608 c 0
 239.979492188 574 229.979492188 535 229.979492188 500 c 0
 229.979492188 413 229.979492188 325 232.979492188 238 c 0
 234.979492188 196 233.979492188 154 236.979492188 112 c 0
 238.979492188 85 243.979492188 50 236.979492188 24 c 0
 224.979492188 -20 183.979492188 -9 148.979492188 -6 c 0
 130.979492188 -5 111.979492188 -6 92.9794921875 -6 c 0
 74.9794921875 -6 46.9794921875 -12 34.9794921875 6 c 0
 22.9794921875 23 33.9794921875 46 53.9794921875 49 c 0
 94.9794921875 56 139.979492188 51 180.979492188 48 c 1
EndSplineSet
EndChar

StartChar: d
Encoding: 100 100 39
Width: 410
VWidth: 0
Flags: HW
LayerCount: 2
Back
Fore
SplineSet
282.013671875 369 m 5
 282.69140625 432.290039062 286.365234375 441.993164062 286.607421875 492 c 0
 286.850585938 542.249023438 296.607421875 605 310.607421875 654 c 0
 318.607421875 684 362.115234375 699.16796875 360.607421875 667 c 0
 359.013671875 633 346.549804688 591.924804688 344.013671875 556 c 0
 338.013671875 471 330.013671875 456 336.013671875 326 c 4
 337.403320312 295.881835938 343.607421875 237 343.607421875 207 c 0
 343.607421875 195 349.607421875 182 352.607421875 170 c 0
 360.607421875 139 369.607421875 106 385.607421875 78 c 0
 394.607421875 63 416.607421875 48 419.607421875 30 c 0
 424.607421875 1 391.607421875 -11 371.607421875 6 c 0
 336.607421875 36 330.607421875 77 307.607421875 114 c 1
 294.607421875 83 272.607421875 56 247.607421875 34 c 0
 169.607421875 -33 61.607421875 -3 35.607421875 98 c 0
 12.607421875 190 62.40625 323.399414062 147.607421875 366 c 4
 181.607421875 383 247.013671875 386 282.013671875 369 c 5
281.013671875 267 m 4
 280.419921875 284 273.419921875 306 259.013671875 315 c 4
 219.754882812 339.526367188 166.989257812 324.517578125 138.607421875 290 c 4
 101.607421875 245 77.607421875 171 91.607421875 112 c 0
 108.607421875 42 177.607421875 45 221.607421875 90 c 0
 238.607421875 108 249.607421875 130 260.607421875 152 c 0
 268.607421875 169 281.607421875 194 281.607421875 214 c 0
 281.607421875 227 281.526367188 252.33203125 281.013671875 267 c 4
EndSplineSet
EndChar

StartChar: l
Encoding: 108 108 40
Width: 241
VWidth: 0
Flags: HW
LayerCount: 2
Back
Fore
SplineSet
85.0302734375 610.48046875 m 0
 99.470703125 616.240234375 126.91015625 600.879882812 126.91015625 582.639648438 c 4
 126.91015625 566.3203125 117.030273438 560.559570312 113.23046875 546.16015625 c 4
 107.150390625 522.16015625 107.150390625 495.280273438 105.630859375 470.3203125 c 4
 99.55078125 379.120117188 92.7099609375 275.440429688 108.669921875 185.200195312 c 4
 114.75 150.639648438 121.590820312 113.200195312 139.830078125 85.3603515625 c 4
 157.310546875 59.4404296875 167.870117188 50.7998046875 189.91015625 34.48046875 c 0
 204.350585938 23.919921875 205.870117188 -2 189.91015625 -11.599609375 c 0
 177.75 -19.2802734375 163.310546875 -9.6796875 151.91015625 -3.919921875 c 0
 118.470703125 13.3603515625 90.3505859375 45.0400390625 73.630859375 85.3603515625 c 0
 26.5107421875 201.51953125 39.4306640625 356.080078125 50.0703125 480.879882812 c 0
 53.1103515625 512.559570312 54.630859375 546.16015625 62.990234375 576.879882812 c 0
 66.7900390625 590.3203125 73.630859375 605.6796875 85.0302734375 610.48046875 c 0
EndSplineSet
EndChar

StartChar: v
Encoding: 118 118 41
Width: 306
VWidth: 0
Flags: HW
LayerCount: 2
Back
Fore
SplineSet
129.603515625 92 m 1
 143.603515625 136 158.603515625 180 173.603515625 224 c 0
 182.603515625 252 192.603515625 280 203.603515625 308 c 0
 213.603515625 334 218.603515625 366 239.603515625 385 c 4
 255.603515625 400 283.603515625 389 285.603515625 368 c 4
 288.603515625 341 267.603515625 314 258.603515625 288 c 0
 232.603515625 217 213.603515625 147 186.603515625 76 c 0
 177.603515625 51 164.603515625 2 131.603515625 -1 c 0
 93.603515625 -4 80.603515625 51 71.603515625 78 c 0
 49.603515625 143 35.603515625 206 27.603515625 274 c 0
 24.603515625 300 15.603515625 334 22.603515625 360 c 0
 28.603515625 384 60.603515625 389 73.603515625 368 c 0
 86.603515625 348 77.603515625 321 80.603515625 299 c 0
 83.603515625 275 88.603515625 250 92.603515625 226 c 0
 99.603515625 182 108.603515625 132 129.603515625 92 c 1
EndSplineSet
EndChar

StartChar: L
Encoding: 76 76 42
Width: 437
VWidth: 0
Flags: HW
LayerCount: 2
Back
Fore
SplineSet
137.249023438 52 m 1
 213.249023438 46 293.249023438 50 369.249023438 55 c 0
 392.249023438 56 439.249023438 56 423.249023438 18 c 0
 413.249023438 -7 358.249023438 -2 335.249023438 -3 c 0
 273.249023438 -5 206.249023438 -17 145.249023438 -9 c 0
 115.249023438 -5 86.2490234375 7 79.2490234375 40 c 0
 46.2490234375 196 65.2490234375 364 67.2490234375 522 c 0
 67.2490234375 549 69.2490234375 575 69.2490234375 602 c 0
 69.2490234375 615 66.2490234375 630 68.2490234375 643 c 0
 71.2490234375 659 86.2490234375 669 101.249023438 665 c 0
 118.249023438 661 123.249023438 645 123.249023438 630 c 0
 123.249023438 593 123.249023438 557 123.249023438 520 c 0
 123.249023438 418 119.249023438 316 123.249023438 214 c 0
 125.249023438 160 136.249023438 106 137.249023438 52 c 1
EndSplineSet
EndChar

StartChar: S
Encoding: 83 83 43
Width: 443
VWidth: 0
Flags: HW
LayerCount: 2
Back
Fore
SplineSet
220.336914062 659 m 0
 260.336914062 663 305.336914062 652 336.336914062 626 c 0
 350.336914062 614 364.336914062 602 362.336914062 582 c 0
 361.336914062 563 343.336914062 548 324.336914062 556 c 0
 308.336914062 562 303.336914062 583 288.336914062 592 c 0
 253.336914062 612 200.336914062 607 170.336914062 580 c 0
 162.336914062 573 149.336914062 562 148.336914062 551 c 0
 143.336914062 510 172.336914062 466 196.336914062 436 c 0
 212.336914062 415 230.336914062 396 250.336914062 379 c 0
 323.336914062 317 423.336914062 251 412.336914062 142 c 0
 410.336914062 118 406.336914062 94 390.336914062 76 c 0
 379.336914062 63 365.336914062 53 350.336914062 44 c 0
 328.336914062 32 302.336914062 26 277.336914062 23 c 0
 205.336914062 15 137.336914062 32 72.3369140625 64 c 0
 51.3369140625 74 -8.6630859375 110 36.3369140625 134 c 0
 58.3369140625 146 91.3369140625 117 110.336914062 109 c 0
 167.336914062 85 226.336914062 70 287.336914062 84 c 0
 310.336914062 89 341.336914062 101 349.336914062 126 c 0
 362.336914062 166 343.336914062 208 317.336914062 238 c 0
 299.336914062 259 277.336914062 277 256.336914062 295 c 0
 238.336914062 310 219.336914062 324 202.336914062 340 c 0
 155.336914062 384 106.336914062 445 93.3369140625 510 c 0
 89.3369140625 531 85.3369140625 560 95.3369140625 580 c 0
 106.336914062 602 129.336914062 623 150.336914062 636 c 0
 172.336914062 649 195.336914062 657 220.336914062 659 c 0
EndSplineSet
EndChar

StartChar: two
Encoding: 50 50 44
Width: 416
VWidth: 0
Flags: HW
LayerCount: 2
Back
Fore
SplineSet
95.0634765625 54 m 1
 172.063476562 54 250.063476562 42 327.063476562 42 c 0
 349.063476562 42 396.063476562 47 384.063476562 8 c 0
 375.063476562 -21 324.063476562 -15 300.063476562 -14 c 0
 230.063476562 -11 159.063476562 -11 90.0634765625 -3 c 0
 64.0634765625 0 32.0634765625 11 30.0634765625 42 c 0
 29.0634765625 59 40.0634765625 78 48.0634765625 92 c 0
 67.0634765625 126 91.0634765625 158 113.063476562 190 c 0
 166.063476562 266 217.063476562 345 259.063476562 428 c 0
 276.063476562 462 298.063476562 498 304.063476562 536 c 0
 306.063476562 551 307.063476562 580 294.063476562 590 c 0
 284.063476562 598 263.063476562 595 251.063476562 595 c 0
 211.063476562 593 169.063476562 589 142.063476562 556 c 0
 135.063476562 548 128.063476562 537 129.063476562 526 c 0
 130.063476562 510 141.063476562 494 123.063476562 482 c 0
 105.063476562 469 83.0634765625 482 77.0634765625 502 c 0
 47.0634765625 606 176.063476562 652 255.063476562 652 c 0
 282.063476562 652 313.063476562 654 335.063476562 635 c 0
 386.063476562 591 361.063476562 505 339.063476562 454 c 0
 277.063476562 309 175.063476562 189 95.0634765625 54 c 1
EndSplineSet
EndChar

StartChar: semicolon
Encoding: 59 59 45
Width: 144
VWidth: 0
Flags: HW
LayerCount: 2
Back
Fore
SplineSet
52.4677734375 385 m 0
 89.4677734375 394 101.467773438 336 64.4677734375 327 c 0
 27.4677734375 318 15.4677734375 376 52.4677734375 385 c 0
70.4677734375 119 m 0
 100.467773438 128 107.467773438 95 110.467773438 74 c 0
 116.467773438 34 117.467773438 -1 98.4677734375 -38 c 0
 92.4677734375 -51 83.4677734375 -67 68.4677734375 -71 c 0
 51.4677734375 -75 35.4677734375 -64 34.4677734375 -46 c 0
 33.4677734375 -22 51.4677734375 0 56.4677734375 23 c 0
 61.4677734375 44 53.4677734375 64 52.4677734375 84 c 0
 51.4677734375 98 54.4677734375 114 70.4677734375 119 c 0
EndSplineSet
EndChar

StartChar: quotedblright
Encoding: 8221 8221 46
Width: 222
VWidth: 0
Flags: HW
LayerCount: 2
Back
Fore
SplineSet
66.525390625 654 m 0
 88.525390625 655 94.525390625 635 97.525390625 618 c 0
 102.525390625 587 100.525390625 554 88.525390625 524 c 0
 82.525390625 509 75.525390625 496 57.525390625 495 c 0
 7.525390625 493 40.525390625 571 42.525390625 595 c 0
 43.525390625 608 37.525390625 623 41.525390625 636 c 0
 44.525390625 647 55.525390625 654 66.525390625 654 c 0
146.525390625 653 m 0
 169.525390625 660 182.525390625 640 186.525390625 620 c 0
 193.525390625 587 200.525390625 506 154.525390625 496 c 0
 139.525390625 493 125.525390625 504 122.525390625 518 c 0
 119.525390625 535 130.525390625 555 132.525390625 572 c 0
 134.525390625 591 127.525390625 609 128.525390625 628 c 0
 129.525390625 639 135.525390625 650 146.525390625 653 c 0
EndSplineSet
EndChar

StartChar: parenleft
Encoding: 40 40 47
Width: 265
VWidth: 0
Flags: HW
LayerCount: 2
Back
Fore
SplineSet
147.475585938 729 m 0
 164.475585938 731 181.475585938 717 179.475585938 699 c 0
 177.475585938 684 165.475585938 670 159.475585938 656 c 0
 149.475585938 631 143.475585938 604 136.475585938 578 c 0
 107.475585938 472 87.4755859375 361 93.4755859375 251 c 0
 96.4755859375 198 103.475585938 144 129.475585938 96 c 0
 153.475585938 52 186.475585938 27 224.475585938 -3 c 0
 241.475585938 -17 236.475585938 -46 214.475585938 -51 c 0
 196.475585938 -55 178.475585938 -41 164.475585938 -31 c 0
 128.475585938 -4 96.4755859375 30 75.4755859375 70 c 0
 -1.5244140625 218 34.4755859375 406 72.4755859375 560 c 0
 83.4755859375 604 94.4755859375 649 113.475585938 690 c 0
 120.475585938 706 127.475585938 726 147.475585938 729 c 0
EndSplineSet
EndChar

StartChar: asciicircum
Encoding: 94 94 48
Width: 290
VWidth: 0
Flags: HW
LayerCount: 2
Back
Fore
SplineSet
123.518554688 600 m 1
 116.518554688 584 103.518554688 570 94.5185546875 554 c 0
 88.5185546875 544 84.5185546875 531 75.5185546875 523 c 0
 63.5185546875 513 45.5185546875 513 35.5185546875 526 c 0
 22.5185546875 543 35.5185546875 562 43.5185546875 578 c 0
 59.5185546875 610 103.518554688 699 151.518554688 663 c 0
 170.518554688 649 181.518554688 625 194.518554688 606 c 0
 209.518554688 584 228.518554688 563 244.518554688 542 c 0
 254.518554688 529 266.518554688 513 256.518554688 496 c 0
 245.518554688 477 223.518554688 481 209.518554688 494 c 0
 180.518554688 522 141.518554688 562 127.518554688 600 c 1
 123.518554688 600 l 1
EndSplineSet
EndChar

StartChar: p
Encoding: 112 112 49
Width: 359
VWidth: 0
Flags: HW
LayerCount: 2
Back
Fore
SplineSet
89 2 m 1
 89 -39 90 -80 91 -121 c 0
 92 -137 95 -156 94 -172 c 0
 92 -191 72 -204 55 -195 c 0
 40 -187 38 -170 36 -155 c 0
 32 -119 30 -82 30 -45 c 0
 30 42 34 129 37 216 c 0
 38 240 41 264 41 288 c 0
 41 303 33 314 38 330 c 0
 51 370 94 383 132 377 c 0
 227 363 337 293 339 188 c 0
 341 99 256 22 175 2 c 0
 147 -5 116 -8 89 2 c 1
95 320 m 1
 101 260 91 197 91 136 c 0
 91 118 85 86 92 70 c 0
 111 29 181 64 205 79 c 0
 221 89 236 99 248 114 c 0
 258 126 268 141 273 156 c 0
 298 225 237 278 179 303 c 0
 153 314 124 327 95 320 c 1
EndSplineSet
EndChar

StartChar: f
Encoding: 102 102 50
Width: 257
VWidth: 0
Flags: HW
LayerCount: 2
Back
Fore
SplineSet
53.486328125 378 m 1
 49.486328125 391 52.486328125 407 52.486328125 421 c 0
 52.486328125 470 60.486328125 533 103.486328125 564 c 0
 154.486328125 601 251.486328125 596 265.486328125 522 c 0
 269.486328125 499 269.486328125 457 235.486328125 462 c 0
 199.486328125 467 223.486328125 516 191.486328125 528 c 0
 168.486328125 537 139.486328125 522 127.486328125 502 c 0
 108.486328125 472 105.486328125 412 113.486328125 378 c 1
 138.486328125 385 188.486328125 383 213.486328125 377 c 0
 224.486328125 374 232.486328125 366 234.486328125 355 c 0
 240.486328125 312 168.486328125 321 143.486328125 320 c 0
 133.486328125 320 123.486328125 318 113.486328125 320 c 1
 116.486328125 238 123.486328125 156 119.486328125 74 c 0
 118.486328125 50 126.486328125 -5 85.486328125 2 c 0
 54.486328125 8 63.486328125 55 63.486328125 78 c 0
 63.486328125 158 58.486328125 238 53.486328125 318 c 1
 29.486328125 318 -10.513671875 308 -32.513671875 317 c 0
 -53.513671875 325 -56.513671875 354 -36.513671875 366 c 0
 -12.513671875 380 26.486328125 372 53.486328125 378 c 1
EndSplineSet
EndChar

StartChar: x
Encoding: 120 120 51
Width: 323
VWidth: 0
Flags: HW
LayerCount: 2
Back
Fore
SplineSet
147.352539062 137 m 5
 135.352539062 109 108.352539062 84 90.3525390625 59 c 4
 79.3525390625 43 70.3525390625 23 56.3525390625 10 c 4
 37.3525390625 -7 6.3525390625 6 10.3525390625 33 c 4
 12.3525390625 46 22.3525390625 58 28.3525390625 69 c 4
 44.3525390625 97 62.3525390625 123 81.3525390625 149 c 4
 88.3525390625 159 112.352539062 180 112.352539062 192 c 4
 112.352539062 203 97.3525390625 218 92.3525390625 227 c 4
 75.3525390625 257 58.3525390625 286 40.3525390625 315 c 4
 33.3525390625 327 19.3525390625 340 19.3525390625 355 c 4
 19.3525390625 380 48.3525390625 392 66.3525390625 375 c 4
 85.3525390625 357 97.3525390625 329 111.352539062 307 c 4
 124.352539062 286 142.352539062 264 151.352539062 241 c 5
 190.352539062 282 214.352539062 337 255.352539062 375 c 4
 275.352539062 394 308.352539062 377 302.352539062 349 c 4
 299.352539062 335 284.352539062 323 276.352539062 311 c 4
 255.352539062 283 235.352539062 254 215.352539062 225 c 4
 208.352539062 215 194.352539062 201 191.352539062 189 c 4
 188.352539062 177 207.352539062 157 213.352539062 147 c 4
 230.352539062 121 247.352539062 95 267.352539062 71 c 4
 276.352539062 60 291.352539062 46 293.352539062 31 c 4
 297.352539062 3 265.352539062 -9 246.352539062 8 c 4
 210.352539062 39 166.352539062 93 149.352539062 137 c 5
 147.352539062 137 l 5
EndSplineSet
EndChar

StartChar: E
Encoding: 69 69 52
Width: 374
VWidth: 0
Flags: HW
LayerCount: 2
Back
Fore
SplineSet
130.903320312 62 m 1
 168.903320312 68 206.903320312 64 244.903320312 64 c 0
 271.903320312 64 299.903320312 67 326.903320312 66 c 0
 344.903320312 65 358.903320312 48 351.903320312 30 c 0
 343.903320312 8 312.903320312 9 292.903320312 8 c 0
 238.903320312 4 182.903320312 4 128.903320312 4 c 0
 109.903320312 4 86.9033203125 6 77.9033203125 26 c 0
 72.9033203125 38 72.9033203125 53 70.9033203125 66 c 0
 63.9033203125 106 64.9033203125 146 62.9033203125 186 c 0
 56.9033203125 291 61.9033203125 398 62.9033203125 503 c 0
 62.9033203125 535 64.9033203125 566 64.9033203125 598 c 0
 64.9033203125 611 59.9033203125 627 62.9033203125 640 c 0
 68.9033203125 665 98.9033203125 666 118.903320312 666 c 0
 174.903320312 666 231.903320312 665 286.903320312 668 c 0
 307.903320312 669 341.903320312 678 351.903320312 652 c 0
 363.903320312 622 326.903320312 613 305.903320312 611 c 0
 243.903320312 604 180.903320312 610 118.903320312 610 c 1
 127.903320312 568 118.903320312 518 118.903320312 476 c 0
 118.903320312 439 125.903320312 397 118.903320312 360 c 1
 174.903320312 360 235.903320312 366 290.903320312 358 c 0
 314.903320312 355 325.903320312 325 304.903320312 309 c 0
 291.903320312 299 270.903320312 301 254.903320312 300 c 0
 211.903320312 298 160.903320312 312 118.903320312 302 c 1
 120.903320312 222 l 1
 130.903320312 62 l 1
EndSplineSet
EndChar

StartChar: T
Encoding: 84 84 53
Width: 493
VWidth: 0
Flags: HW
LayerCount: 2
Back
Fore
SplineSet
245.25 606 m 1
 212.25 606 180.25 602 147.25 602 c 0
 117.25 602 75.25 595 47.25 606 c 0
 24.25 615 24.25 649 47.25 658 c 0
 71.25 668 112.25 662 139.25 664 c 0
 224.25 671 309.25 673 393.25 681 c 0
 419.25 683 457.25 690 483.25 683 c 0
 501.25 678 508.25 657 499.25 642 c 0
 489.25 625 462.25 628 445.25 626 c 0
 397.25 621 343.25 625 297.25 614 c 1
 303.25 601 301.25 584 302.25 569 c 0
 303.25 535 305.25 502 305.25 468 c 0
 306.25 357 304.25 245 304.25 134 c 0
 304.25 99 310.25 56 302.25 22 c 0
 298.25 7 282.25 -4 267.25 1 c 0
 250.25 6 248.25 24 248.25 39 c 0
 248.25 75 245.25 112 245.25 148 c 0
 245.25 303 246.25 451 245.25 606 c 1
EndSplineSet
EndChar

StartChar: three
Encoding: 51 51 54
Width: 386
VWidth: 0
Flags: HW
LayerCount: 2
Back
Fore
SplineSet
252.005859375 408 m 1
 334.005859375 404 359.005859375 338 356.005859375 266 c 0
 353.005859375 194 334.005859375 126 288.005859375 68 c 0
 258.005859375 30 218.005859375 3 168.005859375 8 c 0
 126.005859375 12 84.005859375 40 54.005859375 67 c 0
 40.005859375 79 23.005859375 96 33.005859375 116 c 0
 40.005859375 129 57.005859375 133 70.005859375 127 c 0
 84.005859375 121 94.005859375 106 106.005859375 97 c 0
 123.005859375 84 145.005859375 73 166.005859375 67 c 0
 216.005859375 54 251.005859375 113 270.005859375 150 c 0
 292.005859375 193 299.005859375 242 296.005859375 290 c 0
 295.005859375 311 292.005859375 335 270.005859375 344 c 0
 229.005859375 360 203.005859375 328 168.005859375 318 c 0
 150.005859375 313 133.005859375 326 131.005859375 344 c 0
 128.005859375 371 164.005859375 392 179.005859375 410 c 0
 209.005859375 445 232.005859375 494 238.005859375 540 c 0
 240.005859375 558 241.005859375 580 230.005859375 596 c 0
 204.005859375 634 136.005859375 584 116.005859375 562 c 0
 108.005859375 553 104.005859375 540 94.005859375 533 c 0
 76.005859375 520 49.005859375 534 51.005859375 557 c 0
 53.005859375 578 71.005859375 597 86.005859375 611 c 0
 127.005859375 649 208.005859375 692 260.005859375 649 c 0
 332.005859375 589 287.005859375 475 252.005859375 408 c 1
EndSplineSet
EndChar

StartChar: hyphen
Encoding: 45 45 55
Width: 339
VWidth: 0
Flags: HW
LayerCount: 2
Back
Fore
SplineSet
73.4873046875 245 m 0
 115.487304688 249 159.487304688 242 201.487304688 242 c 0
 228.487304688 242 259.487304688 248 285.487304688 243 c 0
 313.487304688 238 317.487304688 201 291.487304688 190 c 0
 276.487304688 184 259.487304688 185 243.487304688 184 c 0
 197.487304688 180 149.487304688 184 103.487304688 188 c 0
 86.4873046875 190 60.4873046875 182 45.4873046875 189 c 0
 28.4873046875 197 24.4873046875 220 38.4873046875 233 c 0
 47.4873046875 242 61.4873046875 244 73.4873046875 245 c 0
EndSplineSet
EndChar

StartChar: at
Encoding: 64 64 56
Width: 512
VWidth: 0
Flags: HW
LayerCount: 2
Back
Fore
SplineSet
234.390625 667 m 0
 283.390625 673 332.390625 628 357.390625 590 c 0
 403.390625 519 419.390625 432 389.390625 352 c 0
 375.390625 314 345.390625 275 305.390625 263 c 0
 293.390625 260 281.390625 260 269.390625 264 c 0
 263.390625 266 255.390625 272 249.390625 271 c 0
 241.390625 270 232.390625 258 225.390625 254 c 0
 202.390625 241 171.390625 229 145.390625 240 c 0
 126.390625 248 118.390625 271 115.390625 290 c 0
 109.390625 333 150.390625 393 185.390625 413 c 0
 227.390625 437 273.390625 427 282.390625 374 c 0
 284.390625 360 274.390625 332 285.390625 323 c 0
 295.390625 315 316.390625 343 322.390625 350 c 0
 367.390625 409 344.390625 503 306.390625 558 c 0
 283.390625 592 241.390625 621 201.390625 596 c 0
 164.390625 573 147.390625 530 131.390625 492 c 0
 95.390625 408 78.390625 327 101.390625 236 c 0
 113.390625 187 135.390625 143 183.390625 122 c 0
 248.390625 93 315.390625 110 379.390625 133 c 0
 402.390625 141 430.390625 162 455.390625 162 c 0
 483.390625 162 492.390625 125 469.390625 111 c 0
 428.390625 85 370.390625 67 323.390625 56 c 0
 294.390625 49 264.390625 49 234.390625 51 c 0
 211.390625 53 188.390625 58 167.390625 66 c 0
 33.390625 117 12.390625 298 41.390625 420 c 0
 47.390625 445 56.390625 470 66.390625 494 c 0
 99.390625 576 138.390625 656 234.390625 667 c 0
215.390625 368 m 1
 193.390625 351 172.390625 321 171.390625 292 c 1
 203.390625 301 229.390625 334 215.390625 368 c 1
EndSplineSet
EndChar

StartChar: parenright
Encoding: 41 41 57
Width: 226
VWidth: 0
Flags: HW
LayerCount: 2
Back
Fore
SplineSet
78.5078125 737 m 0
 101.5078125 742 113.5078125 718 118.5078125 700 c 0
 133.5078125 650 143.5078125 598 157.5078125 548 c 0
 203.5078125 381 214.5078125 214 157.5078125 48 c 0
 143.5078125 8 129.5078125 -41 99.5078125 -72 c 0
 89.5078125 -82 76.5078125 -96 61.5078125 -98 c 0
 38.5078125 -101 21.5078125 -75 34.5078125 -56 c 0
 44.5078125 -42 60.5078125 -34 68.5078125 -18 c 0
 162.5078125 157 142.5078125 357 100.5078125 542 c 0
 88.5078125 596 70.5078125 650 58.5078125 704 c 0
 55.5078125 719 63.5078125 734 78.5078125 737 c 0
EndSplineSet
EndChar

StartChar: grave
Encoding: 96 96 58
Width: 190
VWidth: 0
Flags: HW
LayerCount: 2
Back
Fore
SplineSet
52.521484375 689 m 0
 63.521484375 692 75.521484375 686 81.521484375 676 c 0
 88.521484375 663 85.521484375 649 94.521484375 636 c 0
 111.521484375 612 142.521484375 600 156.521484375 574 c 0
 164.521484375 559 157.521484375 540 140.521484375 535 c 0
 124.521484375 530 110.521484375 540 98.521484375 549 c 0
 69.521484375 570 43.521484375 597 33.521484375 632 c 0
 27.521484375 652 26.521484375 683 52.521484375 689 c 0
EndSplineSet
EndChar

StartChar: a
Encoding: 97 97 59
Width: 470
VWidth: 0
Flags: HW
LayerCount: 2
Back
Fore
SplineSet
336.264648438 134 m 1
 299.264648438 44 167.264648438 -47 78.2646484375 30 c 0
 10.2646484375 89 23.2646484375 199 61.2646484375 270 c 4
 78.2646484375 302 100.264648438 336 130.264648438 358 c 0
 175.264648438 391 241.264648438 397 288.264648438 364 c 4
 316.264648438 345 319.264648438 315 339.264648438 291 c 0
 346.264648438 282 359.264648438 283 366.264648438 272 c 0
 373.264648438 261 368.264648438 248 370.264648438 236 c 0
 373.264648438 212 380.264648438 187 387.264648438 164 c 0
 395.264648438 137 408.264648438 111 421.264648438 86 c 0
 427.264648438 73 444.264648438 38 439.264648438 23 c 4
 433.264648438 3 406.264648438 -3 392.264648438 13 c 4
 368.264648438 40 352.264648438 103 336.264648438 134 c 1
203.264648438 329 m 0
 130.264648438 317 90.2646484375 216 90.2646484375 150 c 0
 90.2646484375 101 116.264648438 54 171.264648438 63 c 0
 228.264648438 72 270.264648438 126 289.264648438 176 c 0
 293.264648438 188 305.264648438 208 303.264648438 221 c 0
 302.264648438 228 294.264648438 233 292.264648438 240 c 0
 288.264648438 252 290.264648438 265 285.264648438 278 c 0
 272.264648438 312 240.264648438 335 203.264648438 329 c 0
EndSplineSet
EndChar

StartChar: t
Encoding: 116 116 60
Width: 251
VWidth: 0
Flags: HW
LayerCount: 2
Back
Fore
SplineSet
51.7138671875 379 m 1
 51.7138671875 446 69.7138671875 490 75.7138671875 557 c 0
 77.7138671875 578 75.7138671875 615 106.713867188 613 c 0
 137.713867188 611 133.713867188 576 131.713867188 555 c 0
 125.713867188 491 122.713867188 446 109.713867188 383 c 1
 141.713867188 383 172.713867188 386 204.713867188 386 c 0
 218.713867188 386 235.713867188 387 244.713867188 375 c 0
 257.713867188 359 248.713867188 337 229.713867188 331 c 0
 192.713867188 320 143.713867188 323 105.713867188 323 c 1
 101.713867188 270 98.7138671875 194 104.713867188 141 c 0
 106.713867188 121.049804688 107.713867188 101.099609375 119.713867188 84 c 4
 141.713867188 53 183.713867188 65 215.713867188 62 c 4
 230.713867188 60 242.713867188 48 241.713867188 32 c 4
 239.713867188 6 214.713867188 7 195.713867188 6 c 4
 151.713867188 4 102.713867188 9 73.7138671875 46 c 4
 20.7138671875 114.260742188 44.7138671875 243.857421875 45.7138671875 323 c 1
 25.7138671875 323 -13.2861328125 317 -30.2861328125 330 c 0
 -46.2861328125 342 -41.2861328125 368 -24.2861328125 376 c 0
 -6.2861328125 385 31.7138671875 381 51.7138671875 379 c 1
EndSplineSet
EndChar

StartChar: y
Encoding: 121 121 61
Width: 353
VWidth: 0
Flags: HW
LayerCount: 2
Back
Fore
SplineSet
263.266601562 126 m 1
 250.266601562 113 241.266601562 92 231.266601562 76 c 0
 209.266601562 43 170.266601562 7 129.266601562 4 c 0
 81.2666015625 1 47.2666015625 34 32.2666015625 76 c 0
 12.2666015625 133 22.2666015625 203 24.2666015625 262 c 0
 25.2666015625 289 20.2666015625 363 45.2666015625 379 c 0
 65.2666015625 392 89.2666015625 374 87.2666015625 352 c 0
 80.2666015625 285 79.2666015625 210 79.2666015625 143 c 0
 79.2666015625 120 82.2666015625 81 105.266601562 69 c 0
 130.266601562 55 158.266601562 79 173.266601562 98 c 0
 210.266601562 146 244.266601562 214 260.266601562 272 c 0
 267.266601562 296 267.266601562 390 303.266601562 370 c 0
 318.266601562 362 320.266601562 353 321.266601562 338 c 0
 322.266601562 309 321.266601562 273 321.266601562 244 c 0
 321.266601562 159 327.266601562 22 315.266601562 -62 c 0
 309.266601562 -105 289.266601562 -151 249.266601562 -171 c 0
 199.266601562 -196 132.266601562 -191 79.2666015625 -179 c 0
 58.2666015625 -174 19.2666015625 -164 32.2666015625 -134 c 0
 43.2666015625 -107 72.2666015625 -120 93.2666015625 -124 c 0
 131.266601562 -132 197.266601562 -142 229.266601562 -115 c 0
 250.266601562 -97 257.266601562 -64 259.266601562 -38 c 0
 262.266601562 -2 263.266601562 34 263.266601562 70 c 0
 263.266601562 88 259.266601562 109 263.266601562 126 c 1
261.266601562 130 m 1
 263.266601562 128 l 1
 261.266601562 130 l 1
EndSplineSet
EndChar

StartChar: F
Encoding: 70 70 62
Width: 383
VWidth: 0
Flags: HW
LayerCount: 2
Back
Fore
SplineSet
91.43359375 604 m 1
 72.43359375 608 63.43359375 630 75.43359375 646 c 0
 81.43359375 655 93.43359375 658 103.43359375 661 c 0
 153.43359375 675 206.43359375 678 257.43359375 680 c 0
 284.43359375 681 312.43359375 685 339.43359375 680 c 0
 369.43359375 675 371.43359375 632 341.43359375 625 c 0
 310.43359375 617 275.43359375 621 243.43359375 620 c 0
 210.43359375 619 178.43359375 614 145.43359375 612 c 1
 146.43359375 549 l 1
 147.43359375 428 l 1
 147.43359375 336 l 1
 198.43359375 332 249.43359375 347 300.43359375 342 c 0
 322.43359375 340 339.43359375 317 323.43359375 297 c 0
 312.43359375 283 289.43359375 284 273.43359375 282 c 0
 247.43359375 280 221.43359375 278 195.43359375 278 c 0
 179.43359375 278 163.43359375 282 147.43359375 278 c 1
 154.43359375 253 148.43359375 219 148.43359375 193 c 0
 148.43359375 137 153.43359375 76 146.43359375 20 c 0
 143.43359375 -3 114.43359375 -14 98.43359375 4 c 0
 87.43359375 16 89.43359375 39 89.43359375 54 c 2
 89.43359375 164 l 2
 89.43359375 311 91.43359375 457 91.43359375 604 c 1
EndSplineSet
EndChar

StartChar: U
Encoding: 85 85 63
Width: 527
VWidth: 0
Flags: HW
LayerCount: 2
Back
Fore
SplineSet
94.3876953125 667 m 0
 110.387695312 672 128.387695312 659 131.387695312 643 c 0
 133.387695312 631 125.387695312 618 124.387695312 606 c 0
 121.387695312 576 122.387695312 547 120.387695312 517 c 0
 114.387695312 401 114.387695312 276 139.387695312 162 c 0
 151.387695312 106 172.387695312 54 232.387695312 37 c 0
 299.387695312 18 359.387695312 71 389.387695312 126 c 0
 448.387695312 235 447.387695312 370 449.387695312 491 c 0
 449.387695312 519 450.387695312 548 448.387695312 576 c 0
 447.387695312 592 440.387695312 612 442.387695312 628 c 0
 444.387695312 641 457.387695312 652 470.387695312 652 c 0
 496.387695312 651 499.387695312 623 501.387695312 603 c 0
 507.387695312 550 508.387695312 495 506.387695312 441 c 0
 501.387695312 331 500.387695312 217 452.387695312 116 c 0
 418.387695312 45 360.387695312 -15 280.387695312 -27 c 0
 200.387695312 -39 126.387695312 15 99.3876953125 88 c 0
 56.3876953125 204 57.3876953125 345 62.3876953125 467 c 0
 64.3876953125 517 64.3876953125 567 70.3876953125 616 c 0
 72.3876953125 635 71.3876953125 660 94.3876953125 667 c 0
EndSplineSet
EndChar

StartChar: four
Encoding: 52 52 64
Width: 417
VWidth: 0
Flags: HW
LayerCount: 2
Back
Fore
SplineSet
369.536132812 372 m 1
 408.536132812 352 368.536132812 328 370.536132812 302 c 0
 377.536132812 225 374.536132812 148 382.536132812 71 c 0
 384.536132812 48 390.536132812 2 354.536132812 5 c 0
 322.536132812 8 326.536132812 54 324.536132812 77 c 0
 318.536132812 134 318.536132812 191 312.536132812 247 c 0
 310.536132812 263 317.536132812 291 309.536132812 306 c 0
 306.536132812 312 296.536132812 310 291.536132812 309 c 0
 274.536132812 307 257.536132812 305 240.536132812 303 c 0
 191.536132812 297 141.536132812 294 91.5361328125 294 c 0
 71.5361328125 294 45.5361328125 297 34.5361328125 316 c 0
 19.5361328125 343 45.5361328125 382 57.5361328125 406 c 2
 155.536132812 602 l 2
 166.536132812 624 175.536132812 666 195.536132812 681 c 0
 213.536132812 695 240.536132812 681 239.536132812 658 c 0
 237.536132812 628 212.536132812 593 200.536132812 566 c 0
 188.536132812 538 175.536132812 511 162.536132812 484 c 0
 142.536132812 441 117.536132812 398 99.5361328125 354 c 1
 311.536132812 368 l 1
 307.536132812 386 313.536132812 407 313.536132812 426 c 0
 314.536132812 485 321.536132812 546 315.536132812 605 c 0
 313.536132812 627 298.536132812 667 333.536132812 672 c 0
 366.536132812 676 369.536132812 629 371.536132812 606 c 0
 375.536132812 556 373.536132812 505 372.536132812 455 c 0
 371.536132812 428 374.536132812 399 369.536132812 372 c 1
EndSplineSet
EndChar

StartChar: endash
Encoding: 8211 8211 65
Width: 326
VWidth: 0
Flags: HW
LayerCount: 2
Back
Fore
SplineSet
133.25 353 m 0
 175.25 358 238.25 361 278.25 346 c 0
 305.25 336 300.25 298 273.25 293 c 0
 254.25 289 233.25 293 214.25 294 c 0
 178.25 295 142.25 294 106.25 294 c 0
 88.25 294 61.25 285 44.25 294 c 0
 25.25 304 25.25 333 44.25 343 c 0
 68.25 355 107.25 350 133.25 353 c 0
EndSplineSet
EndChar

StartChar: slash
Encoding: 47 47 66
Width: 433
VWidth: 0
Flags: HW
LayerCount: 2
Back
Fore
SplineSet
367.885742188 641 m 0
 387.885742188 647 406.885742188 631 402.885742188 610 c 0
 394.885742188 575 367.885742188 539 352.885742188 506 c 0
 289.885742188 370 222.885742188 236 148.885742188 106 c 0
 131.885742188 76 113.885742188 46 95.8857421875 16 c 0
 87.8857421875 3 77.8857421875 -13 60.8857421875 -15 c 0
 42.8857421875 -17 25.8857421875 0 30.8857421875 18 c 0
 33.8857421875 28 41.8857421875 37 46.8857421875 46 c 0
 58.8857421875 68 71.8857421875 90 83.8857421875 112 c 0
 156.885742188 241 223.885742188 374 289.885742188 506 c 0
 305.885742188 539 323.885742188 571 339.885742188 604 c 0
 346.885742188 617 351.885742188 636 367.885742188 641 c 0
EndSplineSet
EndChar

StartChar: asterisk
Encoding: 42 42 67
Width: 410
VWidth: 0
Flags: HW
LayerCount: 2
Back
Fore
SplineSet
181.495117188 578 m 1
 181.495117188 602 178.495117188 648 192.495117188 668 c 0
 205.495117188 686 234.495117188 684 241.495117188 662 c 0
 247.495117188 646 239.495117188 621 239.495117188 604 c 1
 260.495117188 625 284.495117188 665 313.495117188 675 c 0
 335.495117188 683 359.495117188 663 350.495117188 640 c 0
 346.495117188 630 336.495117188 625 329.495117188 617 c 0
 313.495117188 600 299.495117188 583 283.495117188 566 c 1
 304.495117188 567 334.495117188 577 355.495117188 570 c 0
 376.495117188 563 380.495117188 535 363.495117188 522 c 0
 338.495117188 504 287.495117188 507 257.495117188 502 c 1
 280.495117188 481 302.495117188 457 329.495117188 441 c 0
 344.495117188 432 369.495117188 431 377.495117188 414 c 0
 389.495117188 387 362.495117188 372 339.495117188 376 c 0
 299.495117188 384 265.495117188 410 237.495117188 438 c 1
 236.495117188 423 238.495117188 405 230.495117188 392 c 0
 219.495117188 375 194.495117188 375 183.495117188 392 c 0
 173.495117188 408 177.495117188 436 177.495117188 454 c 1
 160.495117188 437 139.495117188 409 115.495117188 403 c 0
 93.4951171875 397 74.4951171875 419 83.4951171875 440 c 0
 91.4951171875 459 112.495117188 473 125.495117188 488 c 1
 104.495117188 485 68.4951171875 477 47.4951171875 485 c 0
 27.4951171875 493 23.4951171875 520 41.4951171875 533 c 0
 51.4951171875 540 64.4951171875 537 75.4951171875 538 c 0
 94.4951171875 539 113.495117188 542 131.495117188 546 c 1
 108.495117188 566 72.4951171875 596 62.4951171875 626 c 0
 55.4951171875 647 73.4951171875 668 95.4951171875 662 c 0
 109.495117188 658 117.495117188 642 126.495117188 632 c 0
 143.495117188 612 163.495117188 596 181.495117188 578 c 1
EndSplineSet
EndChar

StartChar: braceleft
Encoding: 123 123 68
Width: 389
VWidth: 0
Flags: HW
LayerCount: 2
Back
Fore
SplineSet
170.008789062 380 m 1
 191.008789062 460 144.008789062 557 190.008789062 630 c 0
 210.008789062 661 244.008789062 689 282.008789062 691 c 0
 304.008789062 692 331.008789062 681 331.008789062 655 c 0
 331.008789062 638 315.008789062 624 298.008789062 628 c 0
 290.008789062 630 284.008789062 636 276.008789062 634 c 0
 258.008789062 629 239.008789062 604 232.008789062 588 c 0
 220.008789062 557 231.008789062 519 233.008789062 487 c 0
 236.008789062 438 232.008789062 389 225.008789062 341 c 0
 222.008789062 322 219.008789062 303 207.008789062 288 c 0
 199.008789062 278 182.008789062 275 182.008789062 260 c 0
 183.008789062 203 201.008789062 117 246.008789062 78 c 0
 259.008789062 67 279.008789062 56 296.008789062 60 c 0
 308.008789062 63 321.008789062 72 334.008789062 71 c 0
 349.008789062 70 362.008789062 55 359.008789062 40 c 0
 356.008789062 22 338.008789062 14 322.008789062 9 c 0
 282.008789062 -4 240.008789062 7 208.008789062 34 c 0
 144.008789062 88 125.008789062 195 122.008789062 274 c 1
 104.008789062 276 87.0087890625 285 72.0087890625 295 c 0
 59.0087890625 304 47.0087890625 316 39.0087890625 330 c 0
 24.0087890625 359 28.0087890625 394 49.0087890625 420 c 0
 71.0087890625 447 114.008789062 461 142.008789062 434 c 0
 149.008789062 427 154.008789062 419 158.008789062 410 c 0
 163.008789062 400 167.008789062 391 168.008789062 380 c 1
 170.008789062 380 l 1
100.008789062 388 m 1
 81.0087890625 366 93.0087890625 349 118.008789062 338 c 1
 113.008789062 354 113.008789062 376 100.008789062 388 c 1
170.008789062 380 m 1
 172.008789062 378 l 1
 170.008789062 380 l 1
EndSplineSet
EndChar

StartChar: g
Encoding: 103 103 69
Width: 384
VWidth: 0
Flags: HW
LayerCount: 2
Back
Fore
SplineSet
268.796875 96.0400390625 m 5
 225.59765625 5.5595703125 95.9970703125 -54.759765625 38.3974609375 52.3603515625 c 4
 2.876953125 117.879882812 24.95703125 196.919921875 52.796875 260.360351562 c 4
 62.3974609375 283.240234375 71.9970703125 306.120117188 88.3173828125 324.83984375 c 4
 104.63671875 343.559570312 124.796875 361.240234375 145.916992188 373.719726562 c 4
 183.357421875 395.559570312 234.237304688 390.360351562 270.716796875 369.559570312 c 4
 283.197265625 362.280273438 290.876953125 350.83984375 302.397460938 343.559570312 c 4
 315.836914062 335.240234375 330.237304688 343.559570312 338.876953125 322.759765625 c 4
 353.27734375 288.440429688 330.237304688 241.639648438 328.317382812 206.280273438 c 4
 324.477539062 128.280273438 331.197265625 49.240234375 322.557617188 -28.759765625 c 4
 317.756835938 -70.3603515625 307.197265625 -116.120117188 278.397460938 -146.280273438 c 4
 223.676757812 -204.51953125 162.237304688 -172.280273438 103.676757812 -137.959960938 c 4
 84.4775390625 -126.51953125 40.3173828125 -110.919921875 49.9169921875 -78.6796875 c 4
 56.63671875 -55.7998046875 77.7568359375 -57.8798828125 94.0771484375 -66.2001953125 c 4
 128.63671875 -84.919921875 173.756835938 -123.400390625 214.077148438 -120.280273438 c 4
 231.357421875 -119.240234375 246.716796875 -93.240234375 253.4375 -78.6796875 c 4
 269.756835938 -40.2001953125 269.756835938 4.51953125 270.716796875 46.1201171875 c 4
 270.716796875 61.7197265625 274.557617188 81.48046875 268.796875 96.0400390625 c 5
190.077148438 330.040039062 m 4
 170.876953125 326.919921875 155.517578125 311.3203125 142.077148438 297.799804688 c 4
 105.59765625 261.400390625 79.6767578125 195.879882812 76.796875 141.799804688 c 4
 74.876953125 103.3203125 91.197265625 47.16015625 136.317382812 54.4404296875 c 4
 155.517578125 57.5595703125 172.796875 76.2802734375 186.237304688 88.759765625 c 4
 227.517578125 127.240234375 266.876953125 191.719726562 273.59765625 251 c 4
 279.357421875 304.040039062 235.197265625 338.360351562 190.077148438 330.040039062 c 4
270.716796875 98.1201171875 m 5
 272.63671875 96.0400390625 l 5
 270.716796875 98.1201171875 l 5
EndSplineSet
EndChar

StartChar: i
Encoding: 105 105 70
Width: 183
VWidth: 0
Flags: HW
LayerCount: 2
Back
Fore
SplineSet
71.068359375 549 m 0
 126.068359375 555 123.068359375 468 73.068359375 462 c 0
 45.068359375 459 25.068359375 491 31.068359375 516 c 0
 35.068359375 535 52.068359375 547 71.068359375 549 c 0
66.068359375 353 m 0
 101.068359375 365 102.068359375 322 103.068359375 300 c 0
 104.068359375 245 102.068359375 189 103.068359375 134 c 0
 104.068359375 111 101.068359375 79 111.068359375 58 c 0
 117.068359375 46 139.068359375 53 148.068359375 40 c 0
 158.068359375 25 152.068359375 6 136.068359375 -1 c 0
 95.068359375 -18 62.068359375 9 52.068359375 48 c 0
 34.068359375 116 44.068359375 192 46.068359375 262 c 0
 47.068359375 286 38.068359375 343 66.068359375 353 c 0
EndSplineSet
EndChar

StartChar: z
Encoding: 122 122 71
Width: 315
VWidth: 0
Flags: HW
LayerCount: 2
Back
Fore
SplineSet
225.252929688 331.357421875 m 5
 194.266601562 331.357421875 163.279296875 331.357421875 132.291015625 327.076171875 c 4
 112.240234375 324.505859375 92.189453125 320.22265625 73.0498046875 315.083984375 c 4
 59.37890625 311.658203125 41.1513671875 302.236328125 26.5693359375 306.51953125 c 4
 5.6064453125 312.514648438 4.6953125 339.922851562 22.9228515625 349.344726562 c 4
 39.328125 357.91015625 61.2021484375 362.192382812 79.4296875 366.475585938 c 4
 127.733398438 377.610351562 177.861328125 381.892578125 227.076171875 381.036132812 c 4
 249.861328125 380.1796875 289.962890625 376.75390625 291.786132812 349.344726562 c 4
 294.520507812 315.94140625 254.418945312 283.393554688 234.368164062 259.41015625 c 4
 207.025390625 226.86328125 181.506835938 194.315429688 155.076171875 161.767578125 c 4
 128.645507812 130.076171875 98.5693359375 94.958984375 81.2529296875 57.2724609375 c 5
 112.240234375 57.2724609375 142.31640625 59.8408203125 172.392578125 62.4111328125 c 4
 191.532226562 64.1240234375 210.670898438 65.8369140625 228.899414062 69.2626953125 c 4
 243.482421875 71.83203125 263.532226562 78.685546875 278.115234375 74.4013671875 c 4
 296.342773438 69.2626953125 300.900390625 45.28125 285.40625 34.1455078125 c 4
 271.735351562 24.724609375 248.950195312 24.724609375 232.544921875 21.2978515625 c 4
 184.241210938 11.8759765625 134.11328125 7.59375 84.8984375 7.59375 c 4
 63.0244140625 7.59375 34.771484375 8.4501953125 23.8349609375 29.86328125 c 4
 10.1630859375 56.416015625 40.2392578125 95.814453125 53.91015625 117.227539062 c 4
 102.21484375 192.602539062 164.190429688 265.405273438 225.252929688 331.357421875 c 5
EndSplineSet
EndChar

StartChar: I
Encoding: 73 73 72
Width: 186
VWidth: 0
Flags: HW
LayerCount: 2
Back
Fore
SplineSet
96.3720703125 643 m 0
 110.372070312 646 124.372070312 636 127.372070312 622 c 0
 134.372070312 589 130.372070312 551 130.372070312 517 c 0
 130.372070312 390 132.372070312 263 132.372070312 136 c 0
 132.372070312 108 149.372070312 25 109.372070312 19 c 0
 95.3720703125 17 82.3720703125 27 79.3720703125 40 c 0
 71.3720703125 73 73.3720703125 112 72.3720703125 146 c 0
 67.3720703125 271 71.3720703125 397 74.3720703125 522 c 0
 75.3720703125 552 67.3720703125 592 73.3720703125 621 c 0
 75.3720703125 633 84.3720703125 640 96.3720703125 643 c 0
EndSplineSet
EndChar

StartChar: V
Encoding: 86 86 73
Width: 449
VWidth: 0
Flags: HW
LayerCount: 2
Back
Fore
SplineSet
200.38671875 80 m 1
 205.38671875 108 221.38671875 137 231.38671875 164 c 0
 248.38671875 208 262.38671875 254 278.38671875 298 c 0
 296.38671875 347 315.38671875 397 334.38671875 446 c 0
 356.38671875 502 376.38671875 562 405.38671875 614 c 0
 416.38671875 634 448.38671875 641 457.38671875 614 c 0
 462.38671875 600 452.38671875 585 447.38671875 572 c 0
 434.38671875 543 422.38671875 513 410.38671875 484 c 0
 364.38671875 368 328.38671875 249 284.38671875 132 c 0
 270.38671875 95 255.38671875 58 239.38671875 22 c 0
 232.38671875 5 222.38671875 -14 202.38671875 -16 c 0
 182.38671875 -18 170.38671875 -1 161.38671875 14 c 0
 140.38671875 50 132.38671875 94 122.38671875 134 c 0
 91.38671875 257 68.38671875 385 48.38671875 510 c 0
 43.38671875 539 38.38671875 568 33.38671875 597 c 0
 31.38671875 610 26.38671875 626 34.38671875 638 c 0
 46.38671875 657 76.38671875 653 83.38671875 632 c 0
 89.38671875 616 89.38671875 597 92.38671875 580 c 0
 99.38671875 541 107.38671875 501 114.38671875 462 c 0
 123.38671875 413 134.38671875 363 144.38671875 314 c 0
 159.38671875 238 168.38671875 151 200.38671875 80 c 1
EndSplineSet
EndChar

StartChar: five
Encoding: 53 53 74
Width: 392
VWidth: 0
Flags: HW
LayerCount: 2
Back
Fore
SplineSet
60.5927734375 572 m 1
 9.5927734375 591 53.5927734375 632 86.5927734375 639 c 0
 150.592773438 652 218.592773438 662 284.592773438 662 c 0
 306.592773438 662 353.592773438 654 331.592773438 620 c 0
 319.592773438 602 289.592773438 603 270.592773438 602 c 0
 234.592773438 600 198.592773438 597 163.592773438 593 c 0
 150.592773438 591 132.592773438 593 120.592773438 587 c 0
 109.592773438 582 113.592773438 551 113.592773438 540 c 0
 112.592773438 492 111.592773438 439 122.592773438 392 c 1
 194.592773438 438 298.592773438 414 335.592773438 336 c 0
 382.592773438 237 371.592773438 103 270.592773438 43 c 0
 218.592773438 12 145.592773438 0 86.5927734375 15 c 0
 65.5927734375 20 24.5927734375 36 30.5927734375 64 c 0
 33.5927734375 78 46.5927734375 87 60.5927734375 86 c 0
 73.5927734375 85 84.5927734375 74 97.5927734375 70 c 0
 116.592773438 65 142.592773438 66 162.592773438 68 c 0
 198.592773438 72 240.592773438 87 266.592773438 114 c 0
 313.592773438 163 312.592773438 255 279.592773438 312 c 0
 253.592773438 358 204.592773438 363 158.592773438 344 c 0
 139.592773438 336 120.592773438 317 98.5927734375 323 c 0
 74.5927734375 330 67.5927734375 358 64.5927734375 380 c 0
 58.5927734375 423 58.5927734375 466 58.5927734375 510 c 0
 58.5927734375 530 55.5927734375 553 60.5927734375 572 c 1
EndSplineSet
EndChar

StartChar: emdash
Encoding: 8212 8212 75
Width: 526
VWidth: 0
Flags: HW
LayerCount: 2
Back
Fore
SplineSet
434.686523438 373 m 0
 447.686523438 374 468.686523438 377 480.686523438 371 c 0
 497.686523438 362 501.686523438 338 486.686523438 325 c 0
 465.686523438 308 414.686523438 315 388.686523438 314 c 0
 301.686523438 309 216.686523438 298 129.686523438 305 c 0
 103.686523438 307 21.6865234375 303 30.6865234375 346 c 0
 38.6865234375 387 99.6865234375 363 128.686523438 362 c 0
 200.686523438 359 270.686523438 366 342.686523438 371 c 0
 373.686523438 373 403.686523438 370 434.686523438 373 c 0
EndSplineSet
EndChar

StartChar: backslash
Encoding: 92 92 76
Width: 373
VWidth: 0
Flags: HW
LayerCount: 2
Back
Fore
SplineSet
50.6240234375 635 m 0
 70.6240234375 640 82.6240234375 624 89.6240234375 608 c 0
 105.624023438 572 118.624023438 534 131.624023438 496 c 0
 178.624023438 359 232.624023438 223 289.624023438 90 c 0
 298.624023438 68 307.624023438 44 319.624023438 24 c 0
 325.624023438 13 337.624023438 9 341.624023438 -4 c 0
 345.624023438 -19 335.624023438 -35 321.624023438 -39 c 0
 302.624023438 -44 288.624023438 -33 278.624023438 -18 c 0
 259.624023438 9 246.624023438 42 232.624023438 72 c 0
 172.624023438 205 122.624023438 342 76.6240234375 480 c 0
 66.6240234375 509 57.6240234375 538 46.6240234375 566 c 0
 41.6240234375 578 33.6240234375 590 30.6240234375 602 c 0
 27.6240234375 617 35.6240234375 631 50.6240234375 635 c 0
EndSplineSet
EndChar

StartChar: plus
Encoding: 43 43 77
Width: 396
VWidth: 0
Flags: HW
LayerCount: 2
Back
Fore
SplineSet
210.09375 166 m 1
 216.09375 144 213.09375 115 212.09375 93 c 0
 212.09375 84 214.09375 75 210.09375 66 c 0
 201.09375 47 175.09375 43 162.09375 60 c 0
 149.09375 77 152.09375 113 152.09375 134 c 0
 152.09375 142 155.09375 159 149.09375 165 c 0
 144.09375 170 129.09375 167 122.09375 167 c 0
 96.09375 167 33.09375 158 30.09375 196 c 0
 27.09375 236 97.09375 223 122.09375 224 c 0
 129.09375 224 145.09375 221 150.09375 229 c 0
 155.09375 237 152.09375 255 151.09375 264 c 0
 149.09375 283 151.09375 301 150.09375 320 c 0
 149.09375 332 145.09375 343 151.09375 354 c 0
 163.09375 375 193.09375 370 201.09375 348 c 0
 213.09375 313 210.09375 265 210.09375 228 c 1
 253.09375 228 304.09375 236 346.09375 225 c 0
 367.09375 219 374.09375 191 356.09375 177 c 0
 344.09375 168 323.09375 170 308.09375 170 c 0
 277.09375 170 240.09375 173 210.09375 166 c 1
EndSplineSet
EndChar

StartChar: bar
Encoding: 124 124 78
Width: 146
VWidth: 0
Flags: HW
LayerCount: 2
Back
Fore
SplineSet
54.638671875 655 m 0
 73.638671875 658 86.638671875 641 87.638671875 624 c 0
 91.638671875 568 91.638671875 510 91.638671875 454 c 0
 91.638671875 435 90.638671875 409 65.638671875 406 c 0
 37.638671875 403 35.638671875 432 33.638671875 452 c 0
 28.638671875 502 29.638671875 551 31.638671875 601 c 0
 32.638671875 621 26.638671875 651 54.638671875 655 c 0
55.638671875 281 m 0
 84.638671875 290 95.638671875 258 99.638671875 236 c 0
 109.638671875 176 108.638671875 111 113.638671875 50 c 0
 115.638671875 30 121.638671875 -1 95.638671875 -9 c 0
 63.638671875 -19 59.638671875 19 56.638671875 40 c 0
 47.638671875 99 47.638671875 155 45.638671875 214 c 0
 44.638671875 235 24.638671875 271 55.638671875 281 c 0
EndSplineSet
EndChar

StartChar: s
Encoding: 115 115 79
Width: 314
VWidth: 0
Flags: HW
LayerCount: 2
Back
Fore
SplineSet
213.571289062 62 m 1
 190.571289062 125 157.571289062 172 113.571289062 224 c 0
 90.5712890625 252 63.5712890625 298 79.5712890625 336 c 4
 101.571289062 388 175.571289062 390 221.571289062 378 c 4
 241.571289062 373 275.571289062 363 273.571289062 336 c 4
 272.571289062 322 259.571289062 310 244.571289062 311 c 4
 219.571289062 313 200.571289062 330 173.571289062 328 c 4
 164.571289062 327 132.571289062 323 134.571289062 309 c 4
 137.571289062 290 168.571289062 252 180.571289062 238 c 0
 214.571289062 198 247.571289062 155 264.571289062 104 c 0
 271.571289062 82 276.571289062 53 265.571289062 32 c 0
 253.571289062 8 228.571289062 2 203.571289062 2 c 0
 156.571289062 2 99.5712890625 17 61.5712890625 45 c 0
 44.5712890625 57 15.5712890625 83 20.5712890625 107 c 0
 24.5712890625 124 43.5712890625 134 59.5712890625 126 c 0
 73.5712890625 119 80.5712890625 102 93.5712890625 93 c 0
 121.571289062 73 178.571289062 54 213.571289062 62 c 1
EndSplineSet
EndChar

StartChar: j
Encoding: 106 106 80
Width: 253
VWidth: 0
Flags: HW
LayerCount: 2
Back
Fore
SplineSet
143.114257812 533 m 0
 188.114257812 544 224.114257812 467 167.114257812 454 c 0
 122.114257812 444 99.1142578125 522 143.114257812 533 c 0
151.114257812 369 m 0
 166.114257812 375 184.114257812 365 188.114257812 350 c 0
 198.114257812 314 195.114257812 268 198.114257812 231 c 0
 204.114257812 143 208.114257812 49 186.114257812 -38 c 0
 172.114257812 -95 140.114257812 -145 81.1142578125 -161 c 0
 44.1142578125 -171 13.1142578125 -164 -18.8857421875 -143 c 0
 -35.8857421875 -131 -49.8857421875 -110 -30.8857421875 -92 c 0
 -6.8857421875 -70 20.1142578125 -108 45.1142578125 -109 c 0
 107.114257812 -111 127.114257812 -38 135.114257812 10 c 0
 150.114257812 97 147.114257812 192 138.114257812 279 c 0
 136.114257812 302 123.114257812 358 151.114257812 369 c 0
EndSplineSet
EndChar

StartChar: C
Encoding: 67 67 81
Width: 428
VWidth: 0
Flags: HW
LayerCount: 2
Back
Fore
SplineSet
222.719726562 667 m 0
 285.719726562 677 342.719726562 652 378.719726562 600 c 0
 392.719726562 580 415.719726562 525 383.719726562 509 c 0
 343.719726562 489 346.719726562 547 333.719726562 566 c 0
 309.719726562 601 272.719726562 619 229.719726562 610 c 0
 184.719726562 600 156.719726562 554 141.719726562 514 c 0
 112.719726562 433 97.7197265625 337 102.719726562 251 c 0
 104.719726562 219 110.719726562 175 129.719726562 148 c 0
 163.719726562 101 235.719726562 30 299.719726562 51 c 0
 340.719726562 65 373.719726562 100 407.719726562 126 c 0
 420.719726562 136 440.719726562 142 452.719726562 126 c 0
 467.719726562 106 449.719726562 89 435.719726562 76 c 0
 402.719726562 47 365.719726562 14 323.719726562 -1 c 0
 230.719726562 -34 124.719726562 40 76.7197265625 118 c 0
 18.7197265625 211 41.7197265625 346 62.7197265625 446 c 0
 70.7197265625 483 78.7197265625 520 93.7197265625 554 c 0
 116.719726562 608 161.719726562 658 222.719726562 667 c 0
EndSplineSet
EndChar

StartChar: J
Encoding: 74 74 82
Width: 360
VWidth: 0
Flags: HW
LayerCount: 2
Back
Fore
SplineSet
278.125976562 661 m 0
 300.125976562 667 311.125976562 648 313.125976562 629 c 0
 318.125976562 584 316.125976562 537 321.125976562 492 c 0
 333.125976562 376 337.125976562 251 300.125976562 140 c 0
 282.125976562 87 246.125976562 29 188.125976562 17 c 0
 134.125976562 6 68.1259765625 18 26.1259765625 53 c 0
 7.1259765625 68 -28.8740234375 105 2.1259765625 127 c 0
 30.1259765625 147 55.1259765625 100 76.1259765625 88 c 0
 104.125976562 72 158.125976562 63 188.125976562 79 c 0
 210.125976562 91 229.125976562 123 238.125976562 146 c 0
 285.125976562 266 271.125976562 408 264.125976562 534 c 0
 262.125976562 567 256.125976562 603 258.125976562 636 c 0
 259.125976562 648 266.125976562 658 278.125976562 661 c 0
EndSplineSet
EndChar

StartChar: W
Encoding: 87 87 83
Width: 609
VWidth: 0
Flags: HW
LayerCount: 2
Back
Fore
SplineSet
317.380859375 114 m 1
 292.380859375 72 258.380859375 10 203.380859375 4 c 0
 187.380859375 2 168.380859375 8 153.380859375 13 c 0
 137.380859375 18 125.380859375 28 116.380859375 42 c 0
 107.380859375 56 98.380859375 70 92.380859375 86 c 0
 48.380859375 210 57.380859375 354 57.380859375 484 c 0
 57.380859375 525 57.380859375 566 53.380859375 606 c 0
 51.380859375 623 44.380859375 640 59.380859375 653 c 0
 75.380859375 666 97.380859375 657 103.380859375 638 c 0
 114.380859375 603 109.380859375 565 112.380859375 530 c 0
 122.380859375 410 108.380859375 291 131.380859375 172 c 0
 138.380859375 138 147.380859375 65 193.380859375 64 c 0
 213.380859375 64 235.380859375 95 245.380859375 110 c 0
 286.380859375 170 288.380859375 234 282.380859375 303 c 0
 280.380859375 328 284.380859375 372 321.380859375 365 c 0
 353.380859375 359 351.380859375 315 351.380859375 290 c 0
 351.380859375 228 350.380859375 167 386.380859375 112 c 0
 399.380859375 93 421.380859375 68 447.380859375 70 c 0
 458.380859375 71 468.380859375 84 474.380859375 92 c 0
 494.380859375 117 506.380859375 149 513.380859375 180 c 0
 538.380859375 299 539.380859375 427 522.380859375 547 c 0
 518.380859375 575 501.380859375 612 506.380859375 640 c 0
 509.380859375 660 532.380859375 671 549.380859375 659 c 0
 561.380859375 650 562.380859375 633 565.380859375 620 c 0
 573.380859375 584 580.380859375 548 583.380859375 512 c 0
 590.380859375 433 591.380859375 355 585.380859375 276 c 0
 580.380859375 207 570.380859375 139 536.380859375 78 c 0
 522.380859375 53 502.380859375 26 475.380859375 14 c 0
 407.380859375 -16 340.380859375 60 317.380859375 114 c 1
EndSplineSet
EndChar

StartChar: six
Encoding: 54 54 84
Width: 464
VWidth: 0
Flags: HW
LayerCount: 2
Back
Fore
SplineSet
90 244 m 1
 95 269 114 294 130 314 c 0
 190 388 295 427 376 364 c 0
 389 354 400 340 409 326 c 0
 420 309 427 289 431 269 c 0
 450 163 379 68 300 8 c 0
 272 -14 231 -38 194 -40 c 0
 143 -42 99 0 75 40 c 0
 41 98 30 169 30 236 c 0
 30 338 49 439 82 536 c 0
 98 582 116 632 156 663 c 0
 173 676 207 688 221 666 c 0
 240 637 204 629 188 616 c 0
 171 602 161 586 153 566 c 0
 121 493 103 414 94 335 c 0
 91 307 82 271 90 244 c 1
275 339 m 0
 178 325 132 226 121 139 c 0
 119 124 115 104 117 89 c 0
 122 59 162 18 194 21 c 0
 217 23 246 43 264 56 c 0
 320 98 363 150 373 220 c 0
 381 277 340 349 275 339 c 0
EndSplineSet
EndChar

StartChar: equal
Encoding: 61 61 85
Width: 353
VWidth: 0
Flags: HW
LayerCount: 2
Back
Fore
SplineSet
159.546875 435 m 0
 196.546875 438 250.546875 444 285.546875 431 c 0
 310.546875 421 312.546875 384 283.546875 378 c 0
 270.546875 376 256.546875 379 243.546875 378 c 0
 193.546875 375 144.546875 377 94.546875 377 c 0
 74.546875 377 42.546875 373 32.546875 394 c 0
 25.546875 409 33.546875 428 49.546875 432 c 0
 82.546875 441 125.546875 432 159.546875 435 c 0
276.546875 275 m 0
 288.546875 276 303.546875 277 313.546875 269 c 0
 327.546875 258 326.546875 234 311.546875 224 c 0
 294.546875 213 266.546875 216 247.546875 214 c 0
 193.546875 209 139.546875 208 85.546875 208 c 0
 62.546875 208 25.546875 216 39.546875 248 c 0
 49.546875 271 81.546875 262 101.546875 264 c 0
 159.546875 268 218.546875 269 276.546875 275 c 0
EndSplineSet
EndChar

StartChar: asciitilde
Encoding: 126 126 86
Width: 401
VWidth: 0
Flags: HW
LayerCount: 2
Back
Fore
SplineSet
339.544921875 406 m 0
 376.544921875 408 373.544921875 360 367.544921875 336 c 0
 355.544921875 292 319.544921875 259 274.544921875 251 c 0
 236.544921875 244 201.544921875 269 173.544921875 291 c 0
 161.544921875 301 147.544921875 316 132.544921875 320 c 0
 91.544921875 331 91.544921875 264 57.544921875 264 c 0
 30.544921875 264 24.544921875 292 34.544921875 312 c 0
 49.544921875 343 79.544921875 371 113.544921875 378 c 0
 156.544921875 387 185.544921875 357 217.544921875 334 c 0
 231.544921875 324 248.544921875 309 266.544921875 311 c 0
 290.544921875 314 310.544921875 339 314.544921875 362 c 0
 317.544921875 380 312.544921875 404 339.544921875 406 c 0
EndSplineSet
EndChar

StartChar: comma
Encoding: 44 44 87
Width: 137
VWidth: 0
Flags: HW
LayerCount: 2
Back
Fore
SplineSet
75.0859375 105 m 0
 91.0859375 108 106.0859375 94 107.0859375 78 c 0
 108.0859375 44 105.0859375 -32 62.0859375 -39 c 0
 47.0859375 -42 32.0859375 -31 30.0859375 -16 c 0
 29.0859375 -2 37.0859375 7 41.0859375 20 c 0
 49.0859375 45 42.0859375 99 75.0859375 105 c 0
EndSplineSet
EndChar

StartChar: braceright
Encoding: 125 125 88
Width: 359
VWidth: 0
Flags: HW
LayerCount: 2
Back
Fore
SplineSet
222.630859375 262 m 1
 232.630859375 203 235.630859375 142 235.630859375 82 c 0
 235.630859375 47 235.630859375 9 221.630859375 -24 c 0
 206.630859375 -61 153.630859375 -62 120.630859375 -54 c 0
 106.630859375 -51 90.630859375 -47 84.630859375 -32 c 0
 78.630859375 -16 89.630859375 4 107.630859375 5 c 0
 124.630859375 6 162.630859375 -16 171.630859375 8 c 0
 181.630859375 35 179.630859375 71 177.630859375 99 c 0
 174.630859375 142 173.630859375 184 167.630859375 226 c 0
 164.630859375 247 165.630859375 275 158.630859375 295 c 0
 154.630859375 306 145.630859375 315 141.630859375 326 c 0
 132.630859375 348 129.630859375 373 127.630859375 397 c 0
 123.630859375 438 121.630859375 480 121.630859375 522 c 0
 121.630859375 549 124.630859375 582 114.630859375 608 c 0
 111.630859375 616 107.630859375 629 98.630859375 631 c 0
 76.630859375 635 58.630859375 595 35.630859375 624 c 0
 32.630859375 627 31.630859375 632 30.630859375 636 c 0
 23.630859375 668 76.630859375 690 102.630859375 688 c 0
 141.630859375 685 161.630859375 652 171.630859375 618 c 0
 184.630859375 575 178.630859375 524 180.630859375 480 c 0
 181.630859375 463 179.630859375 440 186.630859375 424 c 1
 212.630859375 475 284.630859375 458 313.630859375 420 c 0
 360.630859375 359 290.630859375 263 222.630859375 262 c 1
218.630859375 322 m 1
 240.630859375 323 276.630859375 354 266.630859375 380 c 0
 262.630859375 390 245.630859375 400 236.630859375 391 c 0
 226.630859375 381 222.630859375 365 220.630859375 352 c 0
 218.630859375 342 217.630859375 332 218.630859375 322 c 1
EndSplineSet
EndChar

StartChar: c
Encoding: 99 99 89
Width: 349
VWidth: 0
Flags: HW
LayerCount: 2
Back
Fore
SplineSet
159.874023438 384 m 4
 195.874023438 388 287.874023438 367 275.874023438 315 c 4
 271.874023438 299 254.874023438 291 239.874023438 296 c 4
 229.874023438 300 225.874023438 309 217.874023438 315 c 4
 196.874023438 330 166.874023438 331 143.874023438 320 c 4
 119.874023438 309 108.874023438 268 100.874023438 244 c 0
 78.8740234375 177 95.8740234375 88 171.874023438 63 c 0
 200.874023438 53 228.874023438 61 249.874023438 84 c 0
 258.874023438 94 262.874023438 107 271.874023438 116 c 0
 283.874023438 128 304.874023438 126 314.874023438 112 c 0
 324.874023438 98 315.874023438 83 308.874023438 70 c 0
 291.874023438 41 268.874023438 16 235.874023438 6 c 0
 148.874023438 -22 61.8740234375 48 36.8740234375 130 c 0
 23.8740234375 173 30.8740234375 222 44.8740234375 264 c 0
 62.8740234375 319 98.8740234375 377 159.874023438 384 c 4
EndSplineSet
EndChar

StartChar: m
Encoding: 109 109 90
Width: 556
VWidth: 0
Flags: HW
LayerCount: 2
Back
Fore
SplineSet
98.5595703125 324 m 1
 111.559570312 380 201.559570312 416 247.559570312 381 c 0
 277.559570312 358 284.559570312 316 294.559570312 282 c 1
 303.559570312 300 313.559570312 318 327.559570312 334 c 0
 369.559570312 383 427.559570312 384 462.559570312 328 c 0
 501.559570312 265 515.559570312 187 522.559570312 114 c 0
 525.559570312 86 527.559570312 68 524.559570312 40 c 4
 523.559570312 28 522.559570312 15 512.559570312 7 c 4
 494.559570312 -8 469.559570312 6 468.559570312 28 c 4
 464.889648438 123.430664062 459.19140625 228.71875 411.559570312 298 c 0
 407.559570312 304 402.559570312 313 394.559570312 312 c 0
 378.559570312 311 363.559570312 284 356.559570312 272 c 0
 335.559570312 236 329.559570312 191 322.559570312 150 c 0
 319.559570312 131 315.559570312 106 294.559570312 98 c 0
 274.559570312 91 258.559570312 108 254.559570312 126 c 0
 243.559570312 178 244.559570312 232 231.559570312 284 c 0
 228.559570312 297 220.559570312 333 203.559570312 334 c 0
 163.559570312 336 146.559570312 288 137.559570312 258 c 0
 119.559570312 198 114.559570312 130 112.559570312 67 c 0
 111.559570312 44 116.559570312 23 96.5595703125 7 c 0
 83.5595703125 -4 61.5595703125 0 53.5595703125 16 c 0
 46.5595703125 31 48.5595703125 36 48.5595703125 52 c 0
 48.5595703125 133 42.5595703125 213 42.5595703125 294 c 0
 42.5595703125 316 38.5595703125 340 40.5595703125 362 c 0
 42.5595703125 384 72.5595703125 395 87.5595703125 378 c 0
 98.5595703125 365 96.5595703125 340 96.5595703125 324 c 1
 98.5595703125 324 l 1
EndSplineSet
EndChar

StartChar: G
Encoding: 71 71 91
Width: 536
VWidth: 0
Flags: HW
LayerCount: 2
Back
Fore
SplineSet
445.73828125 66 m 1
 355.73828125 -38 148.73828125 -20 76.73828125 100 c 0
 57.73828125 131 51.73828125 165 45.73828125 200 c 0
 28.73828125 302 49.73828125 420 105.73828125 508 c 0
 122.73828125 535 139.73828125 564 163.73828125 585 c 0
 215.73828125 629 278.73828125 657 345.73828125 631 c 0
 381.73828125 617 434.73828125 565 410.73828125 522 c 0
 402.73828125 507 380.73828125 505 368.73828125 517 c 0
 359.73828125 526 363.73828125 535 359.73828125 545 c 0
 353.73828125 562 332.73828125 578 315.73828125 582 c 0
 261.73828125 596 208.73828125 555 178.73828125 512 c 0
 163.73828125 490 147.73828125 467 136.73828125 442 c 0
 126.73828125 420 120.73828125 395 114.73828125 372 c 0
 89.73828125 273 83.73828125 128 193.73828125 78 c 0
 213.73828125 69 233.73828125 64 255.73828125 61 c 0
 283.73828125 57 313.73828125 54 341.73828125 63 c 0
 396.73828125 81 416.73828125 128 424.73828125 182 c 0
 428.73828125 212 417.73828125 238 445.73828125 260 c 1
 419.73828125 263 393.73828125 264 367.73828125 268 c 0
 343.73828125 271 304.73828125 273 285.73828125 289 c 0
 267.73828125 305 266.73828125 338 291.73828125 348 c 0
 312.73828125 356 320.73828125 334 337.73828125 330 c 0
 368.73828125 322 403.73828125 320 435.73828125 320 c 0
 453.73828125 320 475.73828125 323 488.73828125 308 c 0
 503.73828125 291 505.73828125 263 505.73828125 242 c 0
 505.73828125 200 504.73828125 158 503.73828125 116 c 0
 503.73828125 89 502.73828125 64 502.73828125 37 c 0
 502.73828125 24 505.73828125 10 496.73828125 0 c 0
 484.73828125 -14 461.73828125 -12 452.73828125 4 c 0
 443.73828125 19 443.73828125 49 445.73828125 66 c 1
EndSplineSet
EndChar

StartChar: K
Encoding: 75 75 92
Width: 420
VWidth: 0
Flags: HW
LayerCount: 2
Back
Fore
SplineSet
113.881835938 220 m 1
 119.881835938 198 114.881835938 169 114.881835938 147 c 0
 114.881835938 99 119.881835938 48 112.881835938 1 c 0
 108.881835938 -24 76.8818359375 -35 62.8818359375 -12 c 0
 55.8818359375 0 58.8818359375 15 57.8818359375 28 c 0
 53.8818359375 67 55.8818359375 107 55.8818359375 146 c 0
 55.8818359375 276 61.8818359375 408 52.8818359375 538 c 0
 50.8818359375 563 45.8818359375 597 56.8818359375 620 c 0
 64.8818359375 636 85.8818359375 645 100.881835938 631 c 0
 115.881835938 617 105.881835938 581 106.881835938 562 c 0
 107.881835938 515 109.881835938 467 112.881835938 420 c 0
 113.881835938 404 109.881835938 384 115.881835938 368 c 1
 125.881835938 389 149.881835938 409 165.881835938 426 c 0
 195.881835938 457 226.881835938 489 253.881835938 524 c 0
 266.881835938 541 281.881835938 559 291.881835938 578 c 0
 297.881835938 589 298.881835938 603 308.881835938 612 c 0
 331.881835938 631 356.881835938 604 351.881835938 580 c 0
 345.881835938 551 325.881835938 525 308.881835938 502 c 0
 273.881835938 455 232.881835938 412 193.881835938 368 c 2
 145.881835938 314 l 2
 140.881835938 309 130.881835938 300 132.881835938 292 c 0
 134.881835938 284 144.881835938 277 149.881835938 272 c 0
 167.881835938 254 186.881835938 240 207.881835938 225 c 0
 263.881835938 185 323.881835938 148 372.881835938 98 c 0
 386.881835938 84 410.881835938 67 417.881835938 48 c 0
 427.881835938 21 394.881835938 3 373.881835938 18 c 0
 344.881835938 38 321.881835938 69 293.881835938 91 c 0
 236.881835938 137 173.881835938 178 113.881835938 220 c 1
EndSplineSet
EndChar

StartChar: X
Encoding: 88 88 93
Width: 438
VWidth: 0
Flags: HW
LayerCount: 2
Back
Fore
SplineSet
240 256 m 1
 233 230 215 206 203 182 c 0
 173 124 143 66 108 12 c 0
 101 1 92 -13 80 -18 c 0
 62 -26 43 -13 42 6 c 0
 41 28 69 59 80 78 c 0
 112 135 141 194 171 252 c 0
 180 269 205 299 204 318 c 0
 204 326 195 335 191 342 c 0
 181 359 172 375 162 392 c 0
 130 446 96 499 65 554 c 0
 50 580 30 609 30 640 c 0
 30 665 62 678 79 658 c 0
 87 649 86 635 91 624 c 0
 100 604 112 586 123 568 c 0
 149 524 177 482 203 438 c 0
 215 419 230 399 238 378 c 1
 242 378 l 1
 252 409 274 438 290 466 c 0
 317 515 342 567 374 614 c 0
 389 636 431 643 430 606 c 0
 429 586 408 564 399 546 c 0
 372 493 343 440 314 388 c 0
 305 372 297 356 288 340 c 0
 285 334 278 326 278 318 c 0
 279 298 305 269 315 252 c 0
 347 197 379 141 411 86 c 0
 422 67 449 38 448 16 c 0
 447 -3 428 -16 410 -8 c 0
 399 -3 392 8 385 18 c 0
 352 67 323 119 293 170 c 0
 277 197 253 226 244 256 c 1
 240 256 l 1
EndSplineSet
EndChar

StartChar: seven
Encoding: 55 55 94
Width: 410
VWidth: 0
Flags: HW
LayerCount: 2
Back
Fore
SplineSet
318.087890625 594 m 1
 273.087890625 594 229.087890625 595 184.087890625 594 c 0
 154.087890625 593 124.087890625 589 94.087890625 594 c 0
 70.087890625 598 19.087890625 598 32.087890625 636 c 0
 43.087890625 668 96.087890625 648 120.087890625 648 c 0
 185.087890625 648 251.087890625 652 316.087890625 652 c 0
 351.087890625 652 382.087890625 643 380.087890625 602 c 0
 379.087890625 568 363.087890625 530 355.087890625 496 c 0
 327.087890625 371 281.087890625 251 254.087890625 126 c 0
 246.087890625 89 239.087890625 51 229.087890625 14 c 0
 224.087890625 -2 213.087890625 -17 194.087890625 -13 c 0
 180.087890625 -10 171.087890625 4 173.087890625 18 c 0
 178.087890625 56 191.087890625 95 197.087890625 133 c 0
 212.087890625 226 248.087890625 315 271.087890625 406 c 0
 281.087890625 448 292.087890625 489 302.087890625 531 c 0
 307.087890625 552 308.087890625 575 318.087890625 594 c 1
EndSplineSet
EndChar

StartChar: exclam
Encoding: 33 33 95
Width: 149
VWidth: 0
Flags: HW
LayerCount: 2
Back
Fore
SplineSet
83.4453125 645 m 0
 127.4453125 659 118.4453125 581 118.4453125 557 c 0
 119.4453125 461 111.4453125 364 115.4453125 268 c 0
 116.4453125 243 128.4453125 185 95.4453125 177 c 0
 50.4453125 165 58.4453125 246 56.4453125 271 c 0
 47.4453125 365 60.4453125 462 62.4453125 556 c 0
 63.4453125 581 51.4453125 635 83.4453125 645 c 0
60.4453125 75 m 0
 117.4453125 85 123.4453125 1 70.4453125 -9 c 0
 20.4453125 -18 16.4453125 67 60.4453125 75 c 0
EndSplineSet
EndChar

StartChar: underscore
Encoding: 95 95 96
Width: 399
VWidth: 0
Flags: HW
LayerCount: 2
Back
Fore
SplineSet
332.793945312 31 m 0
 363.793945312 35 385.793945312 -5 353.793945312 -21 c 0
 331.793945312 -32 298.793945312 -32 273.793945312 -34 c 0
 215.793945312 -38 158.793945312 -36 100.793945312 -30 c 0
 77.7939453125 -28 11.7939453125 -25 34.7939453125 16 c 0
 47.7939453125 40 87.7939453125 27 109.793945312 26 c 0
 184.793945312 23 258.793945312 21 332.793945312 31 c 0
EndSplineSet
EndChar

StartChar: period
Encoding: 46 46 97
Width: 123
VWidth: 0
Flags: HW
LayerCount: 2
Back
Fore
SplineSet
64.4599609375 79 m 0
 105.459960938 80 100.459960938 -7 62.4599609375 -8 c 0
 15.4599609375 -9 22.4599609375 78 64.4599609375 79 c 0
EndSplineSet
EndChar

StartChar: q
Encoding: 113 113 98
Width: 354
VWidth: 0
Flags: HW
LayerCount: 2
Back
Fore
SplineSet
257.36328125 132 m 1
 235.36328125 57 116.36328125 -50 47.36328125 36 c 0
 39.36328125 46 32.36328125 58 28.36328125 70 c 0
 1.36328125 145 44.36328125 260 91.36328125 319 c 0
 110.36328125 343 133.36328125 364 163.36328125 373 c 0
 200.36328125 384 242.36328125 352 273.36328125 332 c 0
 291.36328125 320 301.36328125 303 313.36328125 286 c 0
 334.36328125 254 316.36328125 211 316.36328125 178 c 0
 316.36328125 88 319.36328125 -21 319.36328125 -111 c 0
 319.36328125 -131 322.36328125 -159 314.36328125 -177 c 0
 307.36328125 -193 287.36328125 -197 273.36328125 -187 c 0
 254.36328125 -173 263.36328125 -128 263.36328125 -107 c 0
 263.36328125 -57 264.36328125 11 262.36328125 61 c 0
 261.36328125 84 264.36328125 110 257.36328125 132 c 1
177.36328125 318 m 0
 158.36328125 313 143.36328125 294 132.36328125 279 c 0
 105.36328125 241 86.36328125 181 80.36328125 135 c 0
 77.36328125 108 84.36328125 59 121.36328125 67 c 0
 178.36328125 80 211.36328125 166 233.36328125 214 c 0
 240.36328125 229 255.36328125 254 254.36328125 270 c 0
 253.36328125 296 196.36328125 323 177.36328125 318 c 0
EndSplineSet
EndChar

StartChar: a.alt1
Encoding: 1114112 -1 100
Width: 470
VWidth: 0
Flags: HW
LayerCount: 2
Fore
SplineSet
336.264648438 134 m 1
 299.264648438 44 167.264648438 -47 78.2646484375 30 c 0
 10.2646484375 89 23.2646484375 199 61.2646484375 270 c 0
 78.2646484375 302 100.264648438 336 130.264648438 358 c 0
 175.264648438 391 241.264648438 397 288.264648438 364 c 0
 316.264648438 345 319.264648438 315 339.264648438 291 c 0
 346.264648438 282 359.264648438 283 366.264648438 272 c 0
 373.264648438 261 368.264648438 248 370.264648438 236 c 0
 373.264648438 212 380.264648438 187 387.264648438 164 c 0
 395.264648438 137 408.264648438 111 421.264648438 86 c 0
 427.264648438 73 444.264648438 38 439.264648438 23 c 0
 433.264648438 3 406.264648438 -3 392.264648438 13 c 0
 368.264648438 40 352.264648438 103 336.264648438 134 c 1
203.264648438 329 m 0
 130.264648438 317 90.2646484375 216 90.2646484375 150 c 0
 90.2646484375 101 116.264648438 54 171.264648438 63 c 0
 228.264648438 72 270.264648438 126 289.264648438 176 c 0
 293.264648438 188 305.264648438 208 303.264648438 221 c 0
 302.264648438 228 294.56640625 233.09375 292.264648438 240 c 0
 288.264648438 252 303 273 298 286 c 0
 285 320 240.250976562 335.080078125 203.264648438 329 c 0
EndSplineSet
EndChar
